<svg width="1364" height="190" viewBox="0 0 1364 190" fill="none" xmlns="http://www.w3.org/2000/svg">
<g filter="url(#filter0_d_955_7618)">
<rect width="1235.34" height="176" transform="translate(61.7671)" fill="url(#paint0_linear_955_7618)"/>
<rect x="404" y="28" width="550" height="121" rx="27" fill="url(#paint1_linear_955_7618)"/>
</g>
<path fill-rule="evenodd" clip-rule="evenodd" d="M61.2055 176C76.4013 176 88.72 136.601 88.72 88C88.72 39.3989 76.4013 0 61.2055 0C51.4842 0 42.9404 16.1245 38.0461 40.4674C31.644 39.663 23.841 39.6033 18.6395 42.7053C10.2258 47.7228 8.14239 54.8365 5.57202 63.6129C5.12434 65.1415 4.66188 66.7205 4.14863 68.3477C-0.871912 84.2647 -1.87132 95.5186 4.14863 111.085C4.44556 111.853 4.73199 112.604 5.01231 113.34C8.19304 121.685 10.5883 127.969 18.6395 132.705C23.8236 135.755 31.555 135.718 37.9274 134.937C42.8015 159.612 51.4051 176 61.2055 176Z" fill="url(#paint2_linear_955_7618)"/>
<path fill-rule="evenodd" clip-rule="evenodd" d="M1320.62 136.575C1315.69 160.335 1307.25 176 1297.67 176C1282.48 176 1270.16 136.601 1270.16 88C1270.16 39.3989 1282.48 0 1297.67 0C1307.76 0 1316.58 17.3584 1321.37 43.2445C1327 41.93 1339.45 39.7464 1346.6 44C1355.27 49.162 1357 52.5001 1360 66.1006C1363.67 82.761 1364.77 93.4066 1360 109.788C1359.37 111.95 1358.85 114.035 1358.36 116.034C1356.28 124.402 1354.58 131.266 1346.6 136C1339.11 140.442 1325.82 137.846 1320.62 136.575Z" fill="url(#paint3_linear_955_7618)"/>
<path d="M593.368 85.62H626.704V90.336H593.368V85.62ZM629.872 81.228H662.128V84.756H629.872V81.228ZM643.696 75.108H647.98V90.408H643.696V75.108ZM656.728 71.652L659.464 74.784C652.156 76.26 641.716 76.944 632.896 77.088C632.788 76.152 632.356 74.676 631.996 73.812C640.708 73.596 650.788 72.876 656.728 71.652ZM642.22 82.452L645.712 84C642.364 87.996 636.856 91.524 631.6 93.36C631.024 92.388 629.836 90.84 628.936 90.048C633.976 88.572 639.412 85.62 642.22 82.452ZM649.42 82.56C652.336 85.656 657.988 88.356 663.316 89.652C662.344 90.516 661.12 92.208 660.472 93.288C655.072 91.596 649.492 88.068 646.144 83.964L649.42 82.56ZM653.02 75.684L657.808 76.836C656.62 78.78 655.36 80.688 654.424 81.984L650.716 80.868C651.544 79.392 652.516 77.232 653.02 75.684ZM634.732 77.628L638.44 76.26C639.448 77.556 640.6 79.356 641.068 80.58L637.18 82.092C636.748 80.904 635.704 78.996 634.732 77.628ZM634.444 91.02H657.988V105.168H653.632V94.26H638.584V105.312H634.444V91.02ZM636.064 96.132H656.008V98.94H636.064V96.132ZM636.064 100.92H656.008V104.16H636.064V100.92ZM643.84 93H647.944V103.116H643.84V93ZM679.732 71.436H684.088V77.34H679.732V71.436ZM666.772 75.216H697.552V82.056H693.376V78.132H670.804V82.056H666.772V75.216ZM676.492 81.84V83.388H687.472V81.84H676.492ZM672.496 79.464H691.756V85.764H672.496V79.464ZM670.048 72.624L673.9 71.616C674.8 72.624 675.772 74.064 676.276 75.072L672.316 76.332C671.92 75.324 670.912 73.74 670.048 72.624ZM690.28 71.472L694.744 72.516C693.628 74.064 692.404 75.432 691.468 76.368L687.94 75.36C688.732 74.244 689.776 72.624 690.28 71.472ZM674.548 92.82V94.116H689.776V92.82H674.548ZM674.548 96.312V97.68H689.776V96.312H674.548ZM674.548 89.292V90.624H689.776V89.292H674.548ZM670.444 86.988H694.06V99.984H670.444V86.988ZM675.952 99.84L680.092 101.424C677.356 103.26 672.748 104.664 669.004 105.492C668.248 104.592 666.7 102.972 665.8 102.252C669.58 101.82 673.792 100.992 675.952 99.84ZM683.908 101.892L687.256 99.552C691.036 100.596 695.536 102 698.164 102.972L693.628 105.276C691.468 104.34 687.652 102.972 683.908 101.892ZM717.856 75.756C715.048 80.364 709.54 85.332 703.492 88.536C702.952 87.456 701.728 85.836 700.792 84.936C707.2 81.876 712.816 76.116 715.3 71.328H719.98C723.688 77.412 729.412 82.164 735.316 84.432C734.2 85.584 733.228 87.06 732.436 88.392C726.676 85.476 720.772 80.436 717.856 75.756ZM721.852 84.612H726.352V105.24H721.852V84.612ZM709.432 84.792H713.86V89.256C713.86 94.368 713.14 100.812 706.048 105.24C705.292 104.304 703.6 102.864 702.448 102.18C708.784 98.4 709.432 93.324 709.432 89.148V84.792ZM754.828 99.84H767.248V103.656H754.828V99.84ZM752.812 89.904H769.336V105.06H765.16V93.72H756.772V105.204H752.812V89.904ZM751.552 73.128H768.04V77.088H751.552V73.128ZM766.024 73.128H770.056C770.056 73.128 770.02 74.172 769.984 74.676C769.804 82.2 769.552 85.332 768.652 86.484C767.896 87.42 767.104 87.708 765.952 87.852C764.98 87.996 763.324 87.996 761.56 87.996C761.452 86.736 760.984 85.08 760.3 84C761.812 84.144 763.288 84.144 763.972 84.144C764.476 84.144 764.836 84.072 765.124 83.748C765.664 83.136 765.88 80.544 766.024 73.74V73.128ZM756.7 74.748H760.948C760.408 80.832 759.004 85.908 752.632 88.932C752.128 87.924 750.976 86.412 750.076 85.692C755.476 83.352 756.304 79.392 756.7 74.748ZM742.48 71.472L746.224 72.876C744.748 75.612 743.092 78.816 741.688 80.832L738.808 79.572C740.104 77.448 741.652 73.992 742.48 71.472ZM746.62 75.72L750.112 77.304C747.52 81.444 743.992 86.448 741.256 89.58L738.772 88.176C741.436 84.9 744.748 79.608 746.62 75.72ZM736.936 80.004L738.988 77.052C740.896 78.708 743.128 80.976 744.064 82.632L741.832 85.98C740.968 84.252 738.772 81.732 736.936 80.004ZM745.54 84.324L748.384 83.136C749.788 85.548 751.156 88.716 751.588 90.804L748.528 92.172C748.132 90.084 746.908 86.808 745.54 84.324ZM736.9 87.312C740.212 87.204 745.072 87.024 749.824 86.808L749.788 90.228C745.36 90.552 740.752 90.84 737.26 91.092L736.9 87.312ZM746.332 93.288L749.356 92.316C750.256 94.368 751.192 97.068 751.588 98.868L748.42 99.984C748.06 98.184 747.124 95.412 746.332 93.288ZM738.448 92.604L742.012 93.216C741.652 96.672 740.86 100.272 739.816 102.576C739.06 102.108 737.44 101.352 736.54 100.992C737.584 98.868 738.16 95.664 738.448 92.604ZM742.48 89.22H746.26V105.276H742.48V89.22Z" fill="black"/>
<defs>
<filter id="filter0_d_955_7618" x="57.7671" y="0" width="1243.34" height="190" filterUnits="userSpaceOnUse" color-interpolation-filters="sRGB">
<feFlood flood-opacity="0" result="BackgroundImageFix"/>
<feColorMatrix in="SourceAlpha" type="matrix" values="0 0 0 0 0 0 0 0 0 0 0 0 0 0 0 0 0 0 127 0" result="hardAlpha"/>
<feOffset dy="10"/>
<feGaussianBlur stdDeviation="2"/>
<feComposite in2="hardAlpha" operator="out"/>
<feColorMatrix type="matrix" values="0 0 0 0 0 0 0 0 0 0 0 0 0 0 0 0 0 0 0.25 0"/>
<feBlend mode="normal" in2="BackgroundImageFix" result="effect1_dropShadow_955_7618"/>
<feBlend mode="normal" in="SourceGraphic" in2="effect1_dropShadow_955_7618" result="shape"/>
</filter>
<linearGradient id="paint0_linear_955_7618" x1="161.233" y1="166.5" x2="162.733" y2="-1.96851e-06" gradientUnits="userSpaceOnUse">
<stop offset="0.00946529" stop-color="#174104" stop-opacity="0.8"/>
<stop offset="0.446602" stop-color="#55DE24" stop-opacity="0.8"/>
<stop offset="0.789228" stop-color="#174104"/>
</linearGradient>
<linearGradient id="paint1_linear_955_7618" x1="419" y1="106.5" x2="963" y2="101" gradientUnits="userSpaceOnUse">
<stop stop-color="#FFF0D0"/>
<stop offset="1" stop-color="#FFF0D0" stop-opacity="0.72"/>
</linearGradient>
<linearGradient id="paint2_linear_955_7618" x1="44.36" y1="0" x2="44.36" y2="176" gradientUnits="userSpaceOnUse">
<stop stop-color="#87640F"/>
<stop offset="0.468831" stop-color="#E2C57F"/>
<stop offset="1" stop-color="#704F00"/>
</linearGradient>
<linearGradient id="paint3_linear_955_7618" x1="1316.67" y1="0" x2="1316.67" y2="176" gradientUnits="userSpaceOnUse">
<stop stop-color="#87640F"/>
<stop offset="0.468831" stop-color="#E2C57F"/>
<stop offset="1" stop-color="#704F00"/>
</linearGradient>
</defs>
</svg>
