<svg width="1364" height="190" viewBox="0 0 1364 190" fill="none" xmlns="http://www.w3.org/2000/svg">
<g filter="url(#filter0_d_955_7607)">
<rect width="1235.34" height="176" transform="translate(61.7671)" fill="url(#paint0_linear_955_7607)"/>
<rect x="404" y="28" width="550" height="121" rx="27" fill="url(#paint1_linear_955_7607)"/>
</g>
<path fill-rule="evenodd" clip-rule="evenodd" d="M61.2055 176C76.4013 176 88.72 136.601 88.72 88C88.72 39.3989 76.4013 0 61.2055 0C51.4842 0 42.9404 16.1245 38.0461 40.4674C31.644 39.663 23.841 39.6033 18.6395 42.7053C10.2258 47.7228 8.14239 54.8365 5.57202 63.6129C5.12434 65.1415 4.66188 66.7205 4.14863 68.3477C-0.871912 84.2647 -1.87132 95.5186 4.14863 111.085C4.44556 111.853 4.73199 112.604 5.01231 113.34C8.19304 121.685 10.5883 127.969 18.6395 132.705C23.8236 135.755 31.555 135.718 37.9274 134.937C42.8015 159.612 51.4051 176 61.2055 176Z" fill="url(#paint2_linear_955_7607)"/>
<path fill-rule="evenodd" clip-rule="evenodd" d="M1320.62 136.575C1315.69 160.335 1307.25 176 1297.67 176C1282.48 176 1270.16 136.601 1270.16 88C1270.16 39.3989 1282.48 0 1297.67 0C1307.76 0 1316.58 17.3584 1321.37 43.2445C1327 41.93 1339.45 39.7464 1346.6 44C1355.27 49.162 1357 52.5001 1360 66.1006C1363.67 82.761 1364.77 93.4066 1360 109.788C1359.37 111.95 1358.85 114.035 1358.36 116.034C1356.28 124.402 1354.58 131.266 1346.6 136C1339.11 140.442 1325.82 137.846 1320.62 136.575Z" fill="url(#paint3_linear_955_7607)"/>
<path d="M593.368 85.62H626.704V90.336H593.368V85.62ZM629.872 81.228H662.128V84.756H629.872V81.228ZM643.696 75.108H647.98V90.408H643.696V75.108ZM656.728 71.652L659.464 74.784C652.156 76.26 641.716 76.944 632.896 77.088C632.788 76.152 632.356 74.676 631.996 73.812C640.708 73.596 650.788 72.876 656.728 71.652ZM642.22 82.452L645.712 84C642.364 87.996 636.856 91.524 631.6 93.36C631.024 92.388 629.836 90.84 628.936 90.048C633.976 88.572 639.412 85.62 642.22 82.452ZM649.42 82.56C652.336 85.656 657.988 88.356 663.316 89.652C662.344 90.516 661.12 92.208 660.472 93.288C655.072 91.596 649.492 88.068 646.144 83.964L649.42 82.56ZM653.02 75.684L657.808 76.836C656.62 78.78 655.36 80.688 654.424 81.984L650.716 80.868C651.544 79.392 652.516 77.232 653.02 75.684ZM634.732 77.628L638.44 76.26C639.448 77.556 640.6 79.356 641.068 80.58L637.18 82.092C636.748 80.904 635.704 78.996 634.732 77.628ZM634.444 91.02H657.988V105.168H653.632V94.26H638.584V105.312H634.444V91.02ZM636.064 96.132H656.008V98.94H636.064V96.132ZM636.064 100.92H656.008V104.16H636.064V100.92ZM643.84 93H647.944V103.116H643.84V93ZM679.732 71.436H684.088V77.34H679.732V71.436ZM666.772 75.216H697.552V82.056H693.376V78.132H670.804V82.056H666.772V75.216ZM676.492 81.84V83.388H687.472V81.84H676.492ZM672.496 79.464H691.756V85.764H672.496V79.464ZM670.048 72.624L673.9 71.616C674.8 72.624 675.772 74.064 676.276 75.072L672.316 76.332C671.92 75.324 670.912 73.74 670.048 72.624ZM690.28 71.472L694.744 72.516C693.628 74.064 692.404 75.432 691.468 76.368L687.94 75.36C688.732 74.244 689.776 72.624 690.28 71.472ZM674.548 92.82V94.116H689.776V92.82H674.548ZM674.548 96.312V97.68H689.776V96.312H674.548ZM674.548 89.292V90.624H689.776V89.292H674.548ZM670.444 86.988H694.06V99.984H670.444V86.988ZM675.952 99.84L680.092 101.424C677.356 103.26 672.748 104.664 669.004 105.492C668.248 104.592 666.7 102.972 665.8 102.252C669.58 101.82 673.792 100.992 675.952 99.84ZM683.908 101.892L687.256 99.552C691.036 100.596 695.536 102 698.164 102.972L693.628 105.276C691.468 104.34 687.652 102.972 683.908 101.892ZM701.512 94.188H734.488V97.608H701.512V94.188ZM702.52 73.74H733.192V77.016H702.52V73.74ZM722.212 92.1H726.388V101.1C726.388 103.044 725.992 104.088 724.552 104.664C723.076 105.204 721.06 105.24 718.288 105.24C718.144 104.124 717.604 102.54 717.064 101.496C718.792 101.568 720.88 101.568 721.456 101.568C722.032 101.532 722.212 101.388 722.212 100.956V92.1ZM715.804 71.436H720.052V90.84H715.804V71.436ZM707.272 98.832L710.224 96.348C712.204 97.608 714.724 99.516 715.876 100.92L712.708 103.656C711.628 102.252 709.252 100.2 707.272 98.832ZM709.432 84.72V86.088H726.712V84.72H709.432ZM709.432 80.904V82.272H726.712V80.904H709.432ZM705.364 78.312H730.96V88.716H705.364V78.312ZM723.076 89.292L725.596 87.348C728.26 88.428 731.428 90.3 733.156 91.632L730.564 93.828C728.872 92.388 725.704 90.408 723.076 89.292ZM703.06 90.048C709.684 90.084 720.304 90.048 730.24 89.94L730.06 92.604C720.412 92.892 710.116 93.072 703.204 93.144L703.06 90.048ZM753.028 80.976V83.964H758.932V80.976H753.028ZM748.996 78.168H763.216V86.808H748.996V78.168ZM748.78 91.272V95.232H751.588V91.272H748.78ZM745.288 88.356H755.26V98.112H745.288V88.356ZM760.444 91.272V95.232H763.36V91.272H760.444ZM756.88 88.356H767.104V98.112H756.88V88.356ZM738.916 72.696H769.696V76.476H743.128V105.24H738.916V72.696ZM741.652 99.912H770.668V103.8H741.652V99.912Z" fill="black"/>
<defs>
<filter id="filter0_d_955_7607" x="57.7671" y="0" width="1243.34" height="190" filterUnits="userSpaceOnUse" color-interpolation-filters="sRGB">
<feFlood flood-opacity="0" result="BackgroundImageFix"/>
<feColorMatrix in="SourceAlpha" type="matrix" values="0 0 0 0 0 0 0 0 0 0 0 0 0 0 0 0 0 0 127 0" result="hardAlpha"/>
<feOffset dy="10"/>
<feGaussianBlur stdDeviation="2"/>
<feComposite in2="hardAlpha" operator="out"/>
<feColorMatrix type="matrix" values="0 0 0 0 0 0 0 0 0 0 0 0 0 0 0 0 0 0 0.25 0"/>
<feBlend mode="normal" in2="BackgroundImageFix" result="effect1_dropShadow_955_7607"/>
<feBlend mode="normal" in="SourceGraphic" in2="effect1_dropShadow_955_7607" result="shape"/>
</filter>
<linearGradient id="paint0_linear_955_7607" x1="161.233" y1="166.5" x2="162.733" y2="-1.96851e-06" gradientUnits="userSpaceOnUse">
<stop offset="0.00946529" stop-color="#174104" stop-opacity="0.8"/>
<stop offset="0.446602" stop-color="#55DE24" stop-opacity="0.8"/>
<stop offset="0.789228" stop-color="#174104"/>
</linearGradient>
<linearGradient id="paint1_linear_955_7607" x1="419" y1="106.5" x2="963" y2="101" gradientUnits="userSpaceOnUse">
<stop stop-color="#FFF0D0"/>
<stop offset="1" stop-color="#FFF0D0" stop-opacity="0.72"/>
</linearGradient>
<linearGradient id="paint2_linear_955_7607" x1="44.36" y1="0" x2="44.36" y2="176" gradientUnits="userSpaceOnUse">
<stop stop-color="#87640F"/>
<stop offset="0.468831" stop-color="#E2C57F"/>
<stop offset="1" stop-color="#704F00"/>
</linearGradient>
<linearGradient id="paint3_linear_955_7607" x1="1316.67" y1="0" x2="1316.67" y2="176" gradientUnits="userSpaceOnUse">
<stop stop-color="#87640F"/>
<stop offset="0.468831" stop-color="#E2C57F"/>
<stop offset="1" stop-color="#704F00"/>
</linearGradient>
</defs>
</svg>
