<svg width="1364" height="190" viewBox="0 0 1364 190" fill="none" xmlns="http://www.w3.org/2000/svg">
<g filter="url(#filter0_d_872_6578)">
<rect width="1235.34" height="176" transform="translate(61.7671)" fill="url(#paint0_linear_872_6578)"/>
<rect x="404" y="28" width="550" height="121" rx="27" fill="url(#paint1_linear_872_6578)"/>
</g>
<path fill-rule="evenodd" clip-rule="evenodd" d="M61.2055 176C76.4013 176 88.72 136.601 88.72 88C88.72 39.3989 76.4013 0 61.2055 0C51.4842 0 42.9404 16.1245 38.0461 40.4674C31.644 39.663 23.841 39.6033 18.6395 42.7053C10.2258 47.7228 8.14239 54.8365 5.57202 63.6129C5.12434 65.1415 4.66188 66.7205 4.14863 68.3477C-0.871912 84.2647 -1.87132 95.5186 4.14863 111.085C4.44556 111.853 4.73199 112.604 5.01231 113.34C8.19304 121.685 10.5883 127.969 18.6395 132.705C23.8236 135.755 31.555 135.718 37.9274 134.937C42.8015 159.612 51.4051 176 61.2055 176Z" fill="#C59A32"/>
<path fill-rule="evenodd" clip-rule="evenodd" d="M1320.62 136.575C1315.69 160.335 1307.25 176 1297.67 176C1282.48 176 1270.16 136.601 1270.16 88C1270.16 39.3989 1282.48 0 1297.67 0C1307.76 0 1316.58 17.3584 1321.37 43.2445C1327 41.93 1339.45 39.7464 1346.6 44C1355.27 49.162 1357 52.5001 1360 66.1006C1363.67 82.761 1364.77 93.4066 1360 109.788C1359.37 111.95 1358.85 114.035 1358.36 116.034C1356.28 124.402 1354.58 131.266 1346.6 136C1339.11 140.442 1325.82 137.846 1320.62 136.575Z" fill="#C59A32"/>
<path d="M575.368 85.62H608.704V90.336H575.368V85.62ZM611.872 81.228H644.128V84.756H611.872V81.228ZM625.696 75.108H629.98V90.408H625.696V75.108ZM638.728 71.652L641.464 74.784C634.156 76.26 623.716 76.944 614.896 77.088C614.788 76.152 614.356 74.676 613.996 73.812C622.708 73.596 632.788 72.876 638.728 71.652ZM624.22 82.452L627.712 84C624.364 87.996 618.856 91.524 613.6 93.36C613.024 92.388 611.836 90.84 610.936 90.048C615.976 88.572 621.412 85.62 624.22 82.452ZM631.42 82.56C634.336 85.656 639.988 88.356 645.316 89.652C644.344 90.516 643.12 92.208 642.472 93.288C637.072 91.596 631.492 88.068 628.144 83.964L631.42 82.56ZM635.02 75.684L639.808 76.836C638.62 78.78 637.36 80.688 636.424 81.984L632.716 80.868C633.544 79.392 634.516 77.232 635.02 75.684ZM616.732 77.628L620.44 76.26C621.448 77.556 622.6 79.356 623.068 80.58L619.18 82.092C618.748 80.904 617.704 78.996 616.732 77.628ZM616.444 91.02H639.988V105.168H635.632V94.26H620.584V105.312H616.444V91.02ZM618.064 96.132H638.008V98.94H618.064V96.132ZM618.064 100.92H638.008V104.16H618.064V100.92ZM625.84 93H629.944V103.116H625.84V93ZM661.732 71.436H666.088V77.34H661.732V71.436ZM648.772 75.216H679.552V82.056H675.376V78.132H652.804V82.056H648.772V75.216ZM658.492 81.84V83.388H669.472V81.84H658.492ZM654.496 79.464H673.756V85.764H654.496V79.464ZM652.048 72.624L655.9 71.616C656.8 72.624 657.772 74.064 658.276 75.072L654.316 76.332C653.92 75.324 652.912 73.74 652.048 72.624ZM672.28 71.472L676.744 72.516C675.628 74.064 674.404 75.432 673.468 76.368L669.94 75.36C670.732 74.244 671.776 72.624 672.28 71.472ZM656.548 92.82V94.116H671.776V92.82H656.548ZM656.548 96.312V97.68H671.776V96.312H656.548ZM656.548 89.292V90.624H671.776V89.292H656.548ZM652.444 86.988H676.06V99.984H652.444V86.988ZM657.952 99.84L662.092 101.424C659.356 103.26 654.748 104.664 651.004 105.492C650.248 104.592 648.7 102.972 647.8 102.252C651.58 101.82 655.792 100.992 657.952 99.84ZM665.908 101.892L669.256 99.552C673.036 100.596 677.536 102 680.164 102.972L675.628 105.276C673.468 104.34 669.652 102.972 665.908 101.892ZM697.912 74.64H715.264V78.564H697.912V74.64ZM695.752 81.624H716.848V85.62H695.752V81.624ZM696.544 88.86H716.488V92.856H696.544V88.86ZM704.32 71.4H708.604V83.82H704.32V71.4ZM708.604 85.188H712.888V100.416C712.888 102.612 712.456 103.8 711.016 104.448C709.576 105.096 707.524 105.204 704.788 105.204C704.644 103.944 704.068 102.108 703.492 100.92C705.256 100.992 707.236 100.992 707.848 100.956C708.424 100.956 708.604 100.848 708.604 100.344V85.188ZM697.804 94.8L701.008 92.82C702.592 94.404 704.5 96.672 705.364 98.256L701.944 100.488C701.188 98.904 699.352 96.528 697.804 94.8ZM682.936 90.624C686.464 89.832 691.72 88.356 696.688 86.952L697.264 90.732C692.728 92.172 687.796 93.648 683.98 94.764L682.936 90.624ZM689.416 71.436H693.376V105.24H689.416V71.436ZM684.664 73.308L688.264 73.92C687.796 78.672 686.932 83.676 685.636 86.916C684.988 86.376 683.44 85.404 682.576 84.972C683.728 82.056 684.34 77.556 684.664 73.308ZM685.636 78.24H696.364V82.344H684.844L685.636 78.24ZM720.34 73.164H751.66V75.972H720.34V73.164ZM723.004 77.088H749.356V79.644H723.004V77.088ZM741.508 82.992V84.576H746.08V82.992H741.508ZM733.66 82.992V84.576H738.088V82.992H733.66ZM725.884 82.992V84.576H730.204V82.992H725.884ZM722.068 80.616H750.112V86.952H722.068V80.616ZM733.732 71.436H738.016V78.42H733.732V71.436ZM728.368 93.576V94.836H743.92V93.576H728.368ZM728.368 96.96V98.256H743.92V96.96H728.368ZM728.368 90.264V91.452H743.92V90.264H728.368ZM724.192 87.96H748.312V100.488H724.192V87.96ZM737.98 102.432L741.652 100.416C745.54 101.352 750.148 102.576 752.848 103.512L747.736 105.42C745.648 104.52 741.904 103.368 737.98 102.432ZM730.276 100.272L733.948 102C730.852 103.368 726.028 104.628 722.32 105.312C721.6 104.484 720.196 103.044 719.26 102.36C723.184 101.964 727.684 101.208 730.276 100.272ZM771.028 80.976V83.964H776.932V80.976H771.028ZM766.996 78.168H781.216V86.808H766.996V78.168ZM766.78 91.272V95.232H769.588V91.272H766.78ZM763.288 88.356H773.26V98.112H763.288V88.356ZM778.444 91.272V95.232H781.36V91.272H778.444ZM774.88 88.356H785.104V98.112H774.88V88.356ZM756.916 72.696H787.696V76.476H761.128V105.24H756.916V72.696ZM759.652 99.912H788.668V103.8H759.652V99.912Z" fill="black"/>
<defs>
<filter id="filter0_d_872_6578" x="57.7671" y="0" width="1243.34" height="190" filterUnits="userSpaceOnUse" color-interpolation-filters="sRGB">
<feFlood flood-opacity="0" result="BackgroundImageFix"/>
<feColorMatrix in="SourceAlpha" type="matrix" values="0 0 0 0 0 0 0 0 0 0 0 0 0 0 0 0 0 0 127 0" result="hardAlpha"/>
<feOffset dy="10"/>
<feGaussianBlur stdDeviation="2"/>
<feComposite in2="hardAlpha" operator="out"/>
<feColorMatrix type="matrix" values="0 0 0 0 0 0 0 0 0 0 0 0 0 0 0 0 0 0 0.25 0"/>
<feBlend mode="normal" in2="BackgroundImageFix" result="effect1_dropShadow_872_6578"/>
<feBlend mode="normal" in="SourceGraphic" in2="effect1_dropShadow_872_6578" result="shape"/>
</filter>
<linearGradient id="paint0_linear_872_6578" x1="161.233" y1="166.5" x2="162.733" y2="-1.96851e-06" gradientUnits="userSpaceOnUse">
<stop offset="0.00946529" stop-color="#174104" stop-opacity="0.8"/>
<stop offset="0.446602" stop-color="#55DE24" stop-opacity="0.8"/>
<stop offset="0.789228" stop-color="#174104"/>
</linearGradient>
<linearGradient id="paint1_linear_872_6578" x1="419" y1="106.5" x2="963" y2="101" gradientUnits="userSpaceOnUse">
<stop stop-color="#FFF0D0"/>
<stop offset="1" stop-color="#FFF0D0" stop-opacity="0.72"/>
</linearGradient>
</defs>
</svg>
