<svg width="30" height="30" viewBox="0 0 30 30" fill="none" xmlns="http://www.w3.org/2000/svg">
<circle cx="15" cy="15" r="15" fill="#E18213"/>
<g clip-path="url(#clip0_676_8361)">
<path d="M20.3142 11.1824C20.2693 11.1286 20.2131 11.0853 20.1496 11.0557C20.0861 11.026 20.0169 11.0106 19.9468 11.0106H10.2934L10.0007 9.40331C9.96065 9.1827 9.84442 8.98315 9.67229 8.83946C9.50016 8.69576 9.28306 8.61704 9.05884 8.617H7.97872C7.85176 8.617 7.72999 8.66744 7.64021 8.75722C7.55044 8.847 7.5 8.96876 7.5 9.09573C7.5 9.22269 7.55044 9.34446 7.64021 9.43424C7.72999 9.52401 7.85176 9.57445 7.97872 9.57445H9.05585L10.5854 17.9695C10.6304 18.2184 10.7405 18.4511 10.9043 18.6439C10.6782 18.8551 10.5149 19.1249 10.4327 19.4232C10.3505 19.7216 10.3525 20.0369 10.4385 20.3342C10.5246 20.6314 10.6913 20.8991 10.9201 21.1074C11.149 21.3157 11.4311 21.4566 11.7351 21.5144C12.0392 21.5722 12.3533 21.5447 12.6426 21.4348C12.9319 21.325 13.1852 21.1372 13.3743 20.8922C13.5634 20.6473 13.681 20.3547 13.714 20.047C13.747 19.7393 13.6941 19.4284 13.5612 19.1489H16.2792C16.1721 19.3731 16.1167 19.6185 16.117 19.867C16.117 20.1984 16.2153 20.5223 16.3994 20.7979C16.5835 21.0734 16.8452 21.2882 17.1514 21.415C17.4575 21.5418 17.7944 21.575 18.1194 21.5103C18.4445 21.4457 18.743 21.2861 18.9773 21.0518C19.2117 20.8175 19.3712 20.5189 19.4359 20.1939C19.5005 19.8689 19.4674 19.532 19.3405 19.2258C19.2137 18.9196 18.999 18.658 18.7234 18.4739C18.4479 18.2897 18.1239 18.1915 17.7926 18.1915H11.9982C11.8861 18.1915 11.7775 18.1521 11.6915 18.0802C11.6054 18.0084 11.5473 17.9086 11.5273 17.7983L11.3376 16.7553H18.2791C18.6154 16.7553 18.941 16.6372 19.1992 16.4216C19.4574 16.2061 19.6318 15.9068 19.6919 15.5758L20.4195 11.5749C20.4319 11.5058 20.4288 11.4347 20.4106 11.3669C20.3924 11.2991 20.3595 11.2361 20.3142 11.1824ZM17.7926 19.1489C17.9346 19.1489 18.0734 19.191 18.1915 19.2699C18.3096 19.3488 18.4016 19.461 18.456 19.5922C18.5103 19.7234 18.5245 19.8678 18.4968 20.0071C18.4691 20.1464 18.4007 20.2743 18.3003 20.3748C18.1999 20.4752 18.0719 20.5436 17.9326 20.5713C17.7933 20.599 17.649 20.5848 17.5178 20.5304C17.3865 20.4761 17.2744 20.384 17.1955 20.266C17.1166 20.1479 17.0745 20.009 17.0745 19.867C17.0745 19.6766 17.1501 19.4939 17.2848 19.3592C17.4195 19.2246 17.6021 19.1489 17.7926 19.1489ZM12.0479 19.1489C12.1899 19.1489 12.3287 19.191 12.4468 19.2699C12.5649 19.3488 12.6569 19.461 12.7113 19.5922C12.7656 19.7234 12.7799 19.8678 12.7522 20.0071C12.7245 20.1464 12.6561 20.2743 12.5556 20.3748C12.4552 20.4752 12.3273 20.5436 12.188 20.5713C12.0487 20.599 11.9043 20.5848 11.7731 20.5304C11.6419 20.4761 11.5297 20.384 11.4508 20.266C11.3719 20.1479 11.3298 20.009 11.3298 19.867C11.3298 19.6766 11.4054 19.4939 11.5401 19.3592C11.6748 19.2246 11.8574 19.1489 12.0479 19.1489Z" fill="white"/>
</g>
<defs>
<clipPath id="clip0_676_8361">
<rect width="15.3191" height="15.3191" fill="white" transform="translate(7.02148 7.65955)"/>
</clipPath>
</defs>
</svg>
