<svg width="42" height="39" viewBox="0 0 42 39" fill="none" xmlns="http://www.w3.org/2000/svg">
<path d="M25.4939 12.0642H13.4305C12.7637 12.0642 12.2241 11.5247 12.2241 10.8579V6.03251C12.2241 5.36573 12.7637 4.82617 13.4305 4.82617H25.4939C26.1607 4.82617 26.7002 5.36573 26.7002 6.03251V10.8579C26.7002 11.5247 26.1607 12.0642 25.4939 12.0642Z" fill="#FFD580"/>
<path d="M33.5849 0.354374C33.1137 -0.116823 32.3502 -0.116823 31.879 0.354374L30.3192 1.91417L28.7594 0.354374C28.2882 -0.116823 27.5248 -0.116823 27.0536 0.354374C26.5824 0.825571 26.5824 1.58902 27.0536 2.06022L29.4663 4.4729C29.7019 4.70854 30.0106 4.82636 30.3192 4.82636C30.6277 4.82636 30.9365 4.70854 31.172 4.4729L33.5847 2.06022C34.0562 1.58894 34.0562 0.825571 33.5849 0.354374Z" fill="#F24973"/>
<path d="M31.1718 4.47278L33.5845 2.0601C34.0557 1.5889 34.0557 0.825449 33.5845 0.354252C33.1133 -0.116945 32.3498 -0.116945 31.8786 0.354252L30.3188 1.91405V4.82624C30.6276 4.82624 30.9363 4.70842 31.1718 4.47278Z" fill="#D92C49"/>
<path d="M35.1447 12.0643H25.4939C24.8272 12.0643 24.2876 11.5247 24.2876 10.858V3.61992C24.2876 2.95313 24.8272 2.41357 25.4939 2.41357H35.1447C35.8115 2.41357 36.351 2.95313 36.351 3.61992V10.858C36.351 11.5247 35.8115 12.0643 35.1447 12.0643Z" fill="#8AE68A"/>
<path d="M35.1447 2.41357H30.3193V12.0643H35.1447C35.8115 12.0643 36.351 11.5247 36.351 10.858V3.61992C36.351 2.95313 35.8115 2.41357 35.1447 2.41357Z" fill="#60BF80"/>
<path d="M7.24279 9.65151L5.27115 2.41378H1.20634C0.539556 2.41378 0 1.87423 0 1.20744C0 0.540655 0.539556 0.00109863 1.20634 0.00109863H6.19239C6.73669 0.00109863 7.21264 0.365092 7.35635 0.890574L9.98577 10.5413L7.24279 9.65151Z" fill="#80334D"/>
<path d="M32.7319 31.3658H13.4305C12.766 31.3658 12.2241 30.825 12.2241 30.1594C12.2241 29.5362 12.6907 29.0202 13.308 28.9589C13.97 28.893 14.4555 28.3016 14.3871 27.6383C14.3235 26.9763 13.7297 26.5156 13.0677 26.558C11.211 26.743 9.81152 28.2909 9.81152 30.1593C9.81152 32.1549 11.4349 33.7784 13.4305 33.7784H32.732C33.3988 33.7784 33.9384 33.2388 33.9384 32.572C33.9384 31.9052 33.3987 31.3658 32.7319 31.3658Z" fill="#80334D"/>
<path d="M32.7322 31.3657H25.4941V33.7784H32.7322C33.399 33.7784 33.9385 33.2388 33.9385 32.5721C33.9385 31.9053 33.399 31.3657 32.7322 31.3657Z" fill="#59243F"/>
<path d="M13.4303 28.9295C12.8907 28.9295 12.4101 28.5702 12.2663 28.0412L7.24121 9.65161H39.9698C40.3233 9.65161 40.6602 9.80715 40.8911 10.0781C41.1196 10.349 41.2185 10.706 41.1597 11.0559L38.747 25.532C38.6575 26.0703 38.2193 26.4803 37.675 26.5345C10.0455 29.2682 13.72 28.9295 13.4303 28.9295Z" fill="#F24973"/>
<path d="M39.9702 9.65161H25.4941V27.7417C28.6621 27.4271 32.6446 27.0323 37.6754 26.5345C38.2197 26.4803 38.6579 26.0704 38.7474 25.532L41.1601 11.0559C41.219 10.706 41.12 10.349 40.8915 10.0781C40.6606 9.80715 40.3236 9.65161 39.9702 9.65161Z" fill="#D92C49"/>
<path d="M32.7318 38.6038C30.7362 38.6038 29.1128 36.9804 29.1128 34.9847C29.1128 32.9891 30.7362 31.3657 32.7318 31.3657C34.7274 31.3657 36.3508 32.9891 36.3508 34.9847C36.3508 36.9804 34.7274 38.6038 32.7318 38.6038Z" fill="#59243F"/>
<path d="M32.7317 36.1911C33.398 36.1911 33.9381 35.651 33.9381 34.9848C33.9381 34.3185 33.398 33.7784 32.7317 33.7784C32.0655 33.7784 31.5254 34.3185 31.5254 34.9848C31.5254 35.651 32.0655 36.1911 32.7317 36.1911Z" fill="#D9E5FF"/>
<path d="M15.8431 38.6038C13.8475 38.6038 12.2241 36.9804 12.2241 34.9847C12.2241 32.9891 13.8475 31.3657 15.8431 31.3657C17.8388 31.3657 19.4622 32.9891 19.4622 34.9847C19.4622 36.9804 17.8388 38.6038 15.8431 38.6038Z" fill="#80334D"/>
<path d="M15.8431 36.1911C16.5093 36.1911 17.0494 35.651 17.0494 34.9848C17.0494 34.3185 16.5093 33.7784 15.8431 33.7784C15.1768 33.7784 14.6367 34.3185 14.6367 34.9848C14.6367 35.651 15.1768 36.1911 15.8431 36.1911Z" fill="#ECF2FF"/>
<path d="M32.7317 21.715C32.0649 21.715 31.5254 21.1754 31.5254 20.5086V15.6833C31.5254 15.0165 32.0649 14.4769 32.7317 14.4769C33.3985 14.4769 33.9381 15.0165 33.9381 15.6833V20.5086C33.9381 21.1754 33.3985 21.715 32.7317 21.715Z" fill="#D9E5FF"/>
<path d="M18.2557 21.715C17.5889 21.715 17.0493 21.1754 17.0493 20.5086V15.6833C17.0493 15.0165 17.5889 14.4769 18.2557 14.4769C18.9224 14.4769 19.462 15.0165 19.462 15.6833V20.5086C19.462 21.1754 18.9224 21.715 18.2557 21.715Z" fill="#ECF2FF"/>
<path d="M25.4939 21.715C24.8272 21.715 24.2876 21.1754 24.2876 20.5086V15.6833C24.2876 15.0165 24.8272 14.4769 25.4939 14.4769C26.1607 14.4769 26.7003 15.0165 26.7003 15.6833V20.5086C26.7003 21.1754 26.1607 21.715 25.4939 21.715Z" fill="#ECF2FF"/>
<path d="M26.7005 20.5086V15.6833C26.7005 15.0165 26.1609 14.4769 25.4941 14.4769V21.715C26.1609 21.715 26.7005 21.1754 26.7005 20.5086Z" fill="#D9E5FF"/>
</svg>
