<svg width="72" height="66" viewBox="0 0 72 66" fill="none" xmlns="http://www.w3.org/2000/svg">
<path d="M65.4664 7.19988C63.7639 5.26236 61.7425 3.72538 59.5176 2.67674C57.2927 1.62811 54.908 1.08838 52.4998 1.08838C50.0915 1.08838 47.7068 1.62811 45.4819 2.67674C43.257 3.72538 40.7025 5.06249 39 7.00001L35.9997 11L33 7.19988C29.561 3.28805 24.3632 1.09041 19.4997 1.09041C14.6363 1.09041 9.97205 3.28805 6.53308 7.19988C3.09411 11.1117 1.16211 16.4173 1.16211 21.9495C1.16211 27.4816 3.09411 32.7872 6.53308 36.6991L10.0664 40.7182L36 64.5L61.9331 40.7182L65.4664 36.6991C67.1697 34.7624 68.5209 32.4631 69.4428 29.9323C70.3647 27.4015 70.8392 24.6889 70.8392 21.9495C70.8392 19.21 70.3647 16.4974 69.4428 13.9667C68.5209 11.4359 67.1697 9.1365 65.4664 7.19988Z" fill="#E18213" stroke="#E18213" stroke-width="2" stroke-linecap="round" stroke-linejoin="round"/>
</svg>
