<svg width="99" height="100" viewBox="0 0 99 100" fill="none" xmlns="http://www.w3.org/2000/svg">
<g clip-path="url(#clip0_745_935)">
<path d="M0.0113068 38.4567C0.188446 35.699 2.49045 33.5547 5.25025 33.4378L32.956 32.2654L33.289 30.3978C34.2919 24.7791 38.9836 20.5584 44.6763 20.1553L54.4842 19.4599C57.9665 19.2126 61.3941 20.4376 63.9298 22.837L74.1349 32.4872C75.8654 34.1235 77.7136 35.1087 79.3647 35.7026V34.4618C79.3647 32.5751 80.8928 31.047 82.7795 31.047H95.5852C97.4719 31.047 99 32.5751 99 34.4618V68.8232C99 70.7099 97.4719 72.238 95.5852 72.238H82.7797C80.893 72.238 79.3649 70.7099 79.3649 68.8232V67.8035C77.3491 68.485 75.5147 69.5715 73.9443 71.0023L68.2478 76.1964C65.4065 78.7866 61.702 80.2201 57.8576 80.2201C57.8811 80.2201 47.0897 79.41 40.6743 78.9289C38.0616 78.7345 36.0315 76.5535 36.0315 73.9237C36.0315 71.0219 38.4835 68.724 41.3795 68.9144C47.3878 69.309 37.7818 68.6587 31.299 68.2096C28.2632 67.9994 25.9043 65.4765 25.9043 62.4273C25.9043 59.1088 28.6835 56.464 32.0001 56.6275L30.0195 56.5282C26.7385 56.365 24.1516 53.6502 24.1516 50.3564C24.1516 46.9497 26.9172 44.1769 30.3311 44.1769H5.36935C2.28023 44.1765 -0.187393 41.5708 0.0113068 38.4567Z" fill="#FFEBD2"/>
<path d="M45.8919 31.8187C47.9476 31.731 48.0989 34.844 46.0244 34.9309L5.10036 36.6643C3.10654 36.7488 2.87434 33.7961 4.85706 33.5709C5.16246 33.5364 37.0655 32.1954 45.8919 31.8187Z" fill="#FFF3E4"/>
<path d="M39.9964 57.022C42.0705 57.1142 41.9066 60.227 39.8562 60.1342L31.1771 59.747C29.2855 59.6627 29.1602 56.8745 31.0411 56.6586C31.3645 56.6214 30.7455 56.6108 39.9964 57.022Z" fill="#FFF3E4"/>
<path d="M43.3757 69.0424C45.4342 69.1794 45.2167 72.2954 43.1614 72.1507L41.0288 72.003C39.0463 71.8658 39.1315 68.8755 41.1187 68.9036C41.359 68.9068 41.8157 68.9384 43.3757 69.0424Z" fill="#FFF3E4"/>
<path d="M82.0844 40.1668C83.3635 40.3755 84.5186 39.3865 84.5186 38.0906C84.5186 37.2843 83.9056 36.6173 83.1033 36.5416C81.1247 36.3527 77.4185 35.5916 74.135 32.4871L63.9299 22.8369C61.3942 20.4376 57.9666 19.2127 54.4843 19.4599C43.8549 20.2141 43.7241 20.1196 41.9471 20.6568C39.9498 21.2608 40.5376 24.224 42.6175 24.0583C42.6546 24.0554 52.5366 23.3547 52.5366 23.3547C56.0188 23.1073 59.4464 24.3324 61.9821 26.7317L72.1873 36.3817C74.5183 38.5838 78.9815 39.6604 82.0844 40.1668Z" fill="#FFF3E4"/>
<path d="M30.0454 44.1831C28.0416 44.2742 28.1455 47.2927 30.1515 47.2927H39.9268C41.9889 47.2927 41.9883 44.1766 39.9268 44.1766C39.9266 44.1764 30.14 44.1788 30.0454 44.1831Z" fill="#FFF3E4"/>
<path d="M79.3649 68.823C79.3649 70.7097 80.893 72.2378 82.7797 72.2378H95.5852C97.4719 72.2378 99 70.7097 99 68.823V34.4616C99 32.5749 97.4719 31.0468 95.5852 31.0468H82.7797C80.893 31.0468 79.3649 32.5749 79.3649 34.4616V68.823Z" fill="#80AAFF"/>
<path d="M82.5496 31.0545C79.8462 31.2342 80.0523 35.3153 82.7618 35.3153H89.1824C91.0685 35.3153 92.5972 36.844 92.5972 38.7301V69.2499C92.5972 70.9001 93.935 72.2378 95.5852 72.2378C97.4712 72.2378 99 70.709 99 68.823V34.4616C99 32.5755 97.4712 31.0466 95.5852 31.0468C86.5752 31.0476 82.7285 31.0425 82.5496 31.0545Z" fill="#9CBCFF"/>
<path d="M89.1822 45.1329C90.1252 45.1329 90.8896 44.3684 90.8896 43.4255V39.7972C90.8896 38.8543 90.1252 38.0898 89.1822 38.0898C88.2393 38.0898 87.4748 38.8543 87.4748 39.7972V43.4255C87.4748 44.3684 88.2393 45.1329 89.1822 45.1329Z" fill="#719EFA"/>
</g>
<defs>
<clipPath id="clip0_745_935">
<rect width="99" height="99" fill="white" transform="matrix(-1 0 0 1 99 0.324219)"/>
</clipPath>
</defs>
</svg>
