<svg width="99" height="99" viewBox="0 0 99 99" fill="none" xmlns="http://www.w3.org/2000/svg">
<g clip-path="url(#clip0_745_1348)">
<path d="M98.9887 38.1325C98.8116 35.3748 96.5096 33.2305 93.7497 33.1136L66.044 31.9412L65.711 30.0735C64.7081 24.4549 60.0164 20.2342 54.3237 19.8311L44.5158 19.1357C41.0335 18.8884 37.6059 20.1134 35.0702 22.5127L24.8651 32.163C23.1346 33.7993 21.2864 34.7845 19.6353 35.3784V34.1376C19.6353 32.2509 18.1072 30.7228 16.2205 30.7228H3.4148C1.52812 30.7228 0 32.2509 0 34.1376V68.499C0 70.3857 1.52812 71.9138 3.4148 71.9138H16.2203C18.107 71.9138 19.6351 70.3857 19.6351 68.499V67.4793C21.6509 68.1607 23.4853 69.2473 25.0557 70.6781L30.7522 75.8722C33.5935 78.4623 37.298 79.8959 41.1424 79.8959C41.1189 79.8959 51.9103 79.0858 58.3257 78.6047C60.9384 78.4103 62.9685 76.2293 62.9685 73.5994C62.9685 70.6977 60.5165 68.3998 57.6205 68.5901C51.6122 68.9848 61.2182 68.3345 67.701 67.8854C70.7368 67.6752 73.0957 65.1523 73.0957 62.1031C73.0957 58.7845 70.3165 56.1398 66.9999 56.3033L68.9805 56.204C72.2615 56.0407 74.8484 53.326 74.8484 50.0322C74.8484 46.6255 72.0828 43.8527 68.6689 43.8527H93.6307C96.7198 43.8523 99.1874 41.2466 98.9887 38.1325Z" fill="#FFEBD2"/>
<path d="M53.1081 31.4945C51.0524 31.4068 50.9011 34.5198 52.9756 34.6067L93.8996 36.3401C95.8935 36.4246 96.1257 33.4719 94.1429 33.2467C93.8375 33.2121 61.9345 31.8712 53.1081 31.4945Z" fill="#FFF3E4"/>
<path d="M59.0036 56.6978C56.9295 56.79 57.0934 59.9028 59.1438 59.81L67.8229 59.4228C69.7145 59.3385 69.8398 56.5503 67.9589 56.3343C67.6355 56.2972 68.2545 56.2865 59.0036 56.6978Z" fill="#FFF3E4"/>
<path d="M55.6243 68.7181C53.5658 68.8552 53.7833 71.9712 55.8386 71.8265L57.9712 71.6788C59.9537 71.5415 59.8685 68.5512 57.8813 68.5794C57.641 68.5826 57.1843 68.6142 55.6243 68.7181Z" fill="#FFF3E4"/>
<path d="M16.9156 39.8426C15.6365 40.0513 14.4814 39.0623 14.4814 37.7664C14.4814 36.9601 15.0944 36.2931 15.8967 36.2174C17.8753 36.0285 21.5815 35.2674 24.865 32.1629L35.0701 22.5127C37.6058 20.1134 41.0334 18.8885 44.5157 19.1357C55.1451 19.8899 55.2759 19.7954 57.0529 20.3326C59.0502 20.9365 58.4624 23.8997 56.3825 23.7341C56.3454 23.7311 46.4634 23.0305 46.4634 23.0305C42.9812 22.7831 39.5536 24.0082 37.0179 26.4075L26.8127 36.0575C24.4817 38.2596 20.0185 39.3361 16.9156 39.8426Z" fill="#FFF3E4"/>
<path d="M68.9546 43.8588C70.9584 43.95 70.8545 46.9684 68.8485 46.9684H59.0732C57.0111 46.9684 57.0117 43.8524 59.0732 43.8524C59.0734 43.8522 68.86 43.8546 68.9546 43.8588Z" fill="#FFF3E4"/>
<path d="M19.6351 68.4988C19.6351 70.3855 18.107 71.9136 16.2203 71.9136H3.4148C1.52812 71.9136 0 70.3855 0 68.4988V34.1373C0 32.2507 1.52812 30.7225 3.4148 30.7225H16.2203C18.107 30.7225 19.6351 32.2507 19.6351 34.1373V68.4988Z" fill="#80AAFF"/>
<path d="M16.4504 30.7302C19.1538 30.9099 18.9477 34.9911 16.2382 34.9911H9.81755C7.93152 34.9911 6.40275 36.5198 6.40275 38.4059V68.9256C6.40275 70.5758 5.065 71.9136 3.4148 71.9136C1.52876 71.9136 0 70.3848 0 68.4988V34.1374C0 32.2513 1.52876 30.7223 3.4148 30.7225C12.4248 30.7234 16.2715 30.7183 16.4504 30.7302Z" fill="#9CBCFF"/>
<path d="M9.81775 44.8087C8.87484 44.8087 8.11035 44.0442 8.11035 43.1013V39.473C8.11035 38.5301 8.87484 37.7656 9.81775 37.7656C10.7607 37.7656 11.5252 38.5301 11.5252 39.473V43.1013C11.5252 44.0442 10.7607 44.8087 9.81775 44.8087Z" fill="#719EFA"/>
</g>
<defs>
<clipPath id="clip0_745_1348">
<rect width="99" height="99" fill="white"/>
</clipPath>
</defs>
</svg>
