<svg width="157" height="54" viewBox="0 0 157 54" fill="none" xmlns="http://www.w3.org/2000/svg">
<path d="M16.2997 23.3397C12.9157 23.3397 10.4437 22.9677 8.88373 22.2237C7.34773 21.4797 6.57973 20.0877 6.57973 18.0477C6.57973 17.3277 6.69973 16.3077 6.93973 14.9877C8.59573 15.6837 10.5637 16.2477 12.8437 16.6797C15.1237 17.0877 16.9117 17.2917 18.2077 17.2917C19.1197 15.6837 20.3797 14.8797 21.9877 14.8797C23.0437 14.8797 23.8597 15.2157 24.4357 15.8877C25.0357 16.5357 25.3357 17.3757 25.3357 18.4077C25.3357 19.4157 24.9397 20.3637 24.1477 21.2517L22.8877 31.5837C22.6717 33.4317 22.1917 35.0877 21.4477 36.5517C20.7277 38.0157 19.8637 39.1677 18.8557 40.0077C16.8157 41.7117 14.7157 42.5637 12.5557 42.5637C10.3957 42.5637 8.66773 42.0837 7.37173 41.1237C6.07573 40.1877 5.42773 39.0477 5.42773 37.7037C5.42773 36.3357 5.82373 35.2677 6.61573 34.4997C7.40773 33.7077 8.33173 33.3117 9.38773 33.3117C10.4677 33.3117 11.4637 33.6837 12.3757 34.4277C13.2877 35.1717 13.9837 36.2877 14.4637 37.7757L15.3637 37.0557C14.7157 35.2557 14.3917 33.8157 14.3917 32.7357C14.3917 32.1357 14.6197 30.7557 15.0757 28.5957C15.5317 26.4357 15.9397 24.6837 16.2997 23.3397ZM33.3542 41.8437C31.2422 41.8437 29.7662 41.3277 28.9262 40.2957C28.0862 39.2637 27.6662 37.9677 27.6662 36.4077C27.6662 34.8237 27.9302 32.6637 28.4582 29.9277C28.9862 27.1917 29.2502 25.2117 29.2502 23.9877C29.2502 22.7637 28.9982 21.8037 28.4942 21.1077C30.7262 19.9317 32.6102 19.3437 34.1462 19.3437C35.1302 19.3437 35.8382 19.5477 36.2702 19.9557C36.7262 20.3397 36.9542 20.9757 36.9542 21.8637C36.9542 22.7517 36.5822 24.9357 35.8382 28.4157C35.1182 31.8717 34.7582 34.0077 34.7582 34.8237C34.7582 35.6397 34.9862 36.2877 35.4422 36.7677C35.8982 37.2237 36.4982 37.4517 37.2422 37.4517C37.9862 37.4517 38.7782 37.1637 39.6182 36.5877C40.4582 35.9877 41.1422 35.1477 41.6702 34.0677C42.0062 32.1237 42.6662 29.0517 43.6502 24.8517L41.4902 21.9717C43.9142 20.2197 46.2182 19.3437 48.4022 19.3437C49.4822 19.3437 50.2502 19.5477 50.7062 19.9557C51.1862 20.3397 51.4262 20.9397 51.4262 21.7557C51.4262 22.5477 50.9822 24.8397 50.0942 28.6317C49.2302 32.4237 48.7982 35.1237 48.7982 36.7317C48.7982 38.3157 49.1702 39.4317 49.9142 40.0797C48.5702 41.2557 47.1542 41.8437 45.6662 41.8437C44.2022 41.8437 43.1462 41.5197 42.4982 40.8717C41.8502 40.2237 41.5262 39.3717 41.5262 38.3157L41.1662 38.1357C40.3742 39.2877 39.2702 40.1997 37.8542 40.8717C36.4622 41.5197 34.9622 41.8437 33.3542 41.8437ZM58.9384 41.8437C57.5224 41.8437 56.4784 41.4717 55.8064 40.7277C55.1344 39.9837 54.7984 38.9997 54.7984 37.7757C54.7984 36.5517 55.0384 34.5597 55.5184 31.7997C56.0224 29.0397 56.5384 26.5197 57.0664 24.2397L55.1944 21.3597C57.5704 20.0157 59.7664 19.3437 61.7824 19.3437C63.7984 19.3437 64.8064 20.2557 64.8064 22.0797C64.8064 23.2797 64.5304 24.5037 63.9784 25.7517L64.3384 25.9317C66.9064 21.5397 70.1704 19.3437 74.1304 19.3437C77.0344 19.3437 78.4864 20.7957 78.4864 23.6997C78.4864 24.9477 78.1264 27.0597 77.4064 30.0357C76.7104 33.0117 76.3624 35.2557 76.3624 36.7677C76.3624 38.2797 76.6144 39.3837 77.1184 40.0797C75.8464 41.2557 74.5024 41.8437 73.0864 41.8437C70.3264 41.8437 68.9464 40.3557 68.9464 37.3797C68.9464 36.2757 69.3064 34.4037 70.0264 31.7637C70.7464 29.1237 71.1064 27.4077 71.1064 26.6157C71.1064 25.5357 70.6984 24.9957 69.8824 24.9957C69.2104 24.9957 68.4424 25.2957 67.5784 25.8957C66.7144 26.4717 65.8744 27.2637 65.0584 28.2717C64.2664 29.2557 63.5944 30.5157 63.0424 32.0517C62.4904 33.5637 62.2144 35.1117 62.2144 36.6957C62.2144 38.2557 62.4664 39.3837 62.9704 40.0797C61.6984 41.2557 60.3544 41.8437 58.9384 41.8437ZM88.7036 30.8637C88.7036 32.0877 89.0396 33.0837 89.7116 33.8517C90.4076 34.5957 91.2596 34.9677 92.2676 34.9677C93.6356 34.9677 94.8596 34.3197 95.9396 33.0237C96.3476 30.8877 96.8756 27.5157 97.5236 22.9077C94.8356 22.9077 92.6876 23.6877 91.0796 25.2477C89.4956 26.8077 88.7036 28.6797 88.7036 30.8637ZM98.2436 44.5077C97.1156 46.0197 95.6996 47.2077 93.9956 48.0717C92.2916 48.9597 90.4916 49.4037 88.5956 49.4037C86.7236 49.4037 85.2116 49.0437 84.0596 48.3237C82.9316 47.6277 82.3676 46.6797 82.3676 45.4797C82.3676 44.2797 82.8596 43.0197 83.8436 41.6997C84.9476 43.3317 86.6036 44.1477 88.8116 44.1477C90.2516 44.1477 91.5836 43.5237 92.8076 42.2757C94.0556 41.0517 94.8836 39.2517 95.2916 36.8757L94.9316 36.6957C93.2276 39.1917 91.0436 40.4397 88.3796 40.4397C86.3636 40.4397 84.7796 39.6597 83.6276 38.0997C82.4756 36.5397 81.8996 34.4637 81.8996 31.8717C81.8996 29.3757 82.5836 27.0957 83.9516 25.0317C85.5116 22.6557 87.6836 21.0117 90.4676 20.0997C92.0036 19.5957 93.4676 19.3437 94.8596 19.3437C96.2516 19.3437 97.4276 19.4397 98.3876 19.6317C98.5316 20.2797 98.6156 20.8677 98.6396 21.3957C99.7676 20.6277 100.908 20.2437 102.06 20.2437C103.716 20.2437 104.544 21.0957 104.544 22.7997C104.544 24.5037 104.436 26.2557 104.22 28.0557C104.004 29.8317 103.668 31.7397 103.212 33.7797C102.756 35.8197 102.096 37.7517 101.232 39.5757C100.392 41.3757 99.3956 43.0197 98.2436 44.5077ZM139.828 41.8437C136.54 41.8437 133.996 40.9917 132.196 39.2877C130.42 37.5837 129.532 35.2797 129.532 32.3757C129.532 28.5117 130.852 25.3797 133.492 22.9797C136.156 20.5557 139.492 19.3437 143.5 19.3437C145.732 19.3437 147.424 19.8477 148.576 20.8557C149.728 21.8397 150.304 23.1477 150.304 24.7797C150.304 27.0117 149.212 28.8717 147.028 30.3597C144.868 31.8237 141.52 32.5677 136.984 32.5917C137.056 34.1277 137.404 35.3397 138.028 36.2277C138.652 37.0917 139.432 37.5237 140.368 37.5237C141.304 37.5237 142.108 37.2117 142.78 36.5877C143.476 35.9637 143.824 34.9437 143.824 33.5277C147.328 33.5277 149.08 34.3557 149.08 36.0117C149.08 37.4277 148.216 38.7597 146.488 40.0077C144.76 41.2317 142.54 41.8437 139.828 41.8437ZM142.888 23.5557C141.664 23.5557 140.536 24.1677 139.504 25.3917C138.496 26.6157 137.764 28.0557 137.308 29.7117C139.708 29.5197 141.508 28.9797 142.708 28.0917C143.932 27.1797 144.544 26.2197 144.544 25.2117C144.544 24.7317 144.388 24.3357 144.076 24.0237C143.788 23.7117 143.392 23.5557 142.888 23.5557Z" fill="white"/>
<path d="M117.525 11.8509L115.263 11.8286C114.721 11.8233 114.287 12.1685 114.294 12.5997L114.514 26.7275C114.52 27.1587 114.965 27.5126 115.508 27.5179L117.769 27.5402C118.03 27.5428 118.278 27.463 118.46 27.3184C118.642 27.1738 118.742 26.9763 118.739 26.7692L118.519 12.6414C118.512 12.2101 118.067 11.8562 117.525 11.8509Z" fill="#A44E3F"/>
<path d="M117.768 27.5403C118.029 27.5428 118.277 27.4631 118.459 27.3185C118.641 27.1739 118.741 26.9763 118.738 26.7693L118.518 12.6414C118.511 12.2103 118.066 11.8564 117.524 11.851L116.466 11.8406L116.71 27.5298L117.768 27.5403Z" fill="#87363E"/>
<path d="M122.36 27.2376L117.465 27.1168L116.626 27.7842L115.733 27.074L110.838 26.9533C110.36 26.9414 109.984 27.2403 109.999 27.6207L110.161 31.7833C110.237 33.7071 111.417 35.4218 113.576 36.7422C115.158 37.7099 116.714 38.125 116.78 38.1423C116.945 38.1856 117.119 38.1899 117.281 38.1546C117.346 38.1407 118.872 37.8015 120.382 36.9101C120.732 36.7032 121.053 36.4836 121.345 36.2519C122.766 35.1217 123.478 33.7069 123.416 32.1103L123.253 27.9478C123.246 27.7651 123.148 27.5876 122.981 27.4544C122.813 27.3212 122.59 27.2432 122.36 27.2376Z" fill="#D9D9D9"/>
<path d="M117.281 38.1545C117.345 38.1406 118.872 37.8014 120.381 36.91C120.732 36.7031 121.053 36.4835 121.344 36.2519C122.765 35.1216 123.477 33.7068 123.415 32.1102L123.253 27.9477C123.246 27.765 123.148 27.5875 122.98 27.4544C122.813 27.3212 122.589 27.2431 122.36 27.2375L117.465 27.1168L116.626 27.7838L117.032 38.1779C117.116 38.1799 117.2 38.1721 117.281 38.1545Z" fill="white"/>
<path d="M121.672 7.4102L110.974 7.30486L111.007 9.39006C111.029 10.8401 112.526 12.0301 114.349 12.0481L118.444 12.0884C120.267 12.1064 121.727 10.9455 121.705 9.49544L121.672 7.4102Z" fill="white"/>
<path d="M121.47 11.9013C120.671 12.5366 119.601 12.8803 118.457 12.8691L114.363 12.8287C113.218 12.8175 112.137 12.4525 111.318 11.8013C110.499 11.15 110.04 10.2902 110.026 9.38035L109.994 7.29515C109.987 6.86404 110.421 6.51881 110.963 6.52411L121.661 6.62949C122.203 6.63479 122.648 6.98868 122.655 7.41986L122.688 9.50506C122.702 10.4149 122.269 11.2659 121.47 11.9013ZM111.969 8.0952L111.99 9.39973C111.997 9.89245 112.246 10.3582 112.689 10.7109C113.133 11.0637 113.719 11.2612 114.338 11.2674L118.433 11.3077C119.052 11.3138 119.632 11.1277 120.065 10.7836C120.497 10.4395 120.731 9.97852 120.724 9.48576L120.704 8.18123L111.969 8.0952Z" fill="#384949"/>
<path d="M121.66 6.63003L116.384 6.57806L116.408 8.13947L120.702 8.18177L120.723 9.4863C120.73 9.97902 120.496 10.44 120.063 10.7841C119.631 11.1282 119.051 11.3143 118.431 11.3082L116.457 11.2888L116.481 12.8502L118.456 12.8697C119.6 12.8809 120.67 12.5372 121.469 11.9019C122.268 11.2665 122.7 10.4155 122.686 9.50568L122.654 7.42048C122.647 6.98922 122.202 6.63533 121.66 6.63003Z" fill="#283939"/>
<path d="M115.695 25.4072L115.763 29.7563C115.769 30.1874 116.214 30.5413 116.757 30.5467C117.028 30.5493 117.272 30.4644 117.447 30.3249C117.623 30.1854 117.73 29.9912 117.726 29.7757L117.659 25.4265L115.695 25.4072Z" fill="#DCE1EB"/>
<path d="M117.447 30.3245C117.623 30.1849 117.73 29.9908 117.726 29.7752L117.658 25.4261L116.677 25.4165L116.757 30.5462C117.028 30.5488 117.272 30.4639 117.447 30.3245Z" fill="#CDD2E1"/>
</svg>
