<svg width="51" height="40" viewBox="0 0 51 40" fill="none" xmlns="http://www.w3.org/2000/svg">
<path d="M5.91895 3.19165V36.621H45.7087V3.19165L5.91895 3.19165Z" fill="#A55A3C"/>
<path d="M45.8561 1.41663H44.0811C43.6103 1.41663 43.1588 1.60364 42.826 1.93651C42.4931 2.26939 42.3061 2.72087 42.3061 3.19164V31.5918C42.3061 32.0626 42.1191 32.514 41.7862 32.8469C41.4533 33.1798 41.0018 33.3668 40.5311 33.3668H10.3559C9.88514 33.3668 9.43366 33.1798 9.10078 32.8469C8.7679 32.514 8.58089 32.0626 8.58089 31.5918V3.19164C8.58089 2.72087 8.39388 2.26939 8.061 1.93651C7.72812 1.60364 7.27664 1.41663 6.80588 1.41663H5.03087C4.56011 1.41663 4.10863 1.60364 3.77575 1.93651C3.44287 2.26939 3.25586 2.72087 3.25586 3.19164L3.25586 36.9168C3.25586 37.3876 3.44287 37.8391 3.77575 38.1719C4.10863 38.5048 4.56011 38.6918 5.03087 38.6918H45.8561C46.3264 38.6904 46.7771 38.503 47.1097 38.1704C47.4423 37.8378 47.6297 37.3872 47.6311 36.9168V3.19164C47.6311 2.72087 47.4441 2.26939 47.1112 1.93651C46.7783 1.60364 46.3269 1.41663 45.8561 1.41663Z" fill="#FFA50A"/>
<path d="M44.3301 1.41663H43.4562C43.2267 1.41663 42.9994 1.46185 42.7873 1.54969C42.5753 1.63754 42.3826 1.76629 42.2203 1.92861C42.058 2.09092 41.9292 2.28361 41.8414 2.49568C41.7536 2.70775 41.7084 2.93504 41.7084 3.16458V31.1318C41.7084 31.5954 41.5242 32.04 41.1965 32.3678C40.8687 32.6956 40.4241 32.8797 39.9605 32.8798H10.2472C9.78365 32.8797 9.33908 32.6956 9.01129 32.3678C8.68351 32.04 8.49937 31.5954 8.49938 31.1318V3.16458C8.49939 2.93504 8.45419 2.70775 8.36636 2.49568C8.27852 2.28361 8.14978 2.09092 7.98748 1.92861C7.82518 1.7663 7.63249 1.63754 7.42043 1.54969C7.20837 1.46185 6.98108 1.41663 6.75155 1.41663H5.0037C4.77416 1.41663 4.54688 1.46185 4.33481 1.54969C4.12275 1.63754 3.93007 1.76629 3.76776 1.92861C3.60546 2.09092 3.47672 2.28361 3.38888 2.49568C3.30105 2.70775 3.25585 2.93504 3.25586 3.16458L3.25586 35.5017C3.25585 35.9653 3.44 36.4099 3.76778 36.7377C4.09556 37.0655 4.54014 37.2496 5.0037 37.2496H44.3301C44.7933 37.2483 45.2371 37.0637 45.5646 36.7361C45.892 36.4086 46.0766 35.9648 46.078 35.5017V3.16456C46.078 2.93502 46.0328 2.70773 45.9449 2.49567C45.8571 2.2836 45.7284 2.09091 45.5661 1.9286C45.4038 1.76629 45.2111 1.63753 44.999 1.54969C44.787 1.46185 44.5597 1.41663 44.3301 1.41663Z" fill="#FEC502"/>
<path d="M47.6317 15.6167H3.25646C2.27614 15.6167 1.48145 16.4114 1.48145 17.3917V20.9417C1.48145 21.922 2.27614 22.7167 3.25646 22.7167H47.6317C48.612 22.7167 49.4067 21.922 49.4067 20.9417V17.3917C49.4067 16.4114 48.612 15.6167 47.6317 15.6167Z" fill="#F6F4E6"/>
<path d="M29.8817 11.1792H21.0066C20.5165 11.1792 20.1191 11.5765 20.1191 12.0667V26.2668C20.1191 26.7569 20.5165 27.1543 21.0066 27.1543H29.8817C30.3719 27.1543 30.7692 26.7569 30.7692 26.2668V12.0667C30.7692 11.5765 30.3719 11.1792 29.8817 11.1792Z" fill="#FEC502"/>
<path d="M27.6631 17.3917C27.6635 16.9916 27.5557 16.5989 27.3511 16.255C27.1464 15.9112 26.8527 15.6291 26.5008 15.4386C26.149 15.2481 25.7522 15.1562 25.3524 15.1728C24.9527 15.1894 24.5648 15.3137 24.23 15.5327C23.8951 15.7517 23.6257 16.0572 23.4503 16.4168C23.2748 16.7764 23.1999 17.1767 23.2334 17.5754C23.2669 17.9741 23.4076 18.3564 23.6406 18.6816C23.8735 19.0069 24.1901 19.2631 24.5568 19.4232V22.7168C24.5568 22.9522 24.6503 23.1779 24.8168 23.3443C24.9832 23.5108 25.209 23.6043 25.4443 23.6043C25.6797 23.6043 25.9055 23.5108 26.0719 23.3443C26.2383 23.1779 26.3319 22.9522 26.3319 22.7168V19.4232C26.7273 19.2508 27.0639 18.9668 27.3004 18.606C27.5368 18.2451 27.6629 17.8232 27.6631 17.3917Z" fill="#F6F4E6"/>
<path d="M28.1063 17.3917C28.1083 16.9031 27.9759 16.4234 27.7235 16.005C27.4711 15.5867 27.1085 15.2458 26.6753 15.0198C26.2421 14.7938 25.755 14.6914 25.2675 14.7237C24.78 14.7561 24.3107 14.922 23.9112 15.2032C23.5117 15.4845 23.1972 15.8702 23.0023 16.3183C22.8074 16.7663 22.7395 17.2593 22.8061 17.7434C22.8727 18.2274 23.0712 18.6838 23.3799 19.0625C23.6886 19.4413 24.0956 19.7278 24.5562 19.8906V22.7168C24.5562 22.9521 24.6497 23.1779 24.8162 23.3443C24.9826 23.5108 25.2084 23.6043 25.4437 23.6043C25.6791 23.6043 25.9049 23.5108 26.0713 23.3443C26.2377 23.1779 26.3312 22.9521 26.3312 22.7168V19.8907C26.8489 19.7084 27.2974 19.3703 27.6152 18.9228C27.933 18.4754 28.1046 17.9405 28.1063 17.3917ZM25.4437 18.2792C25.2682 18.2792 25.0966 18.2272 24.9507 18.1297C24.8047 18.0321 24.691 17.8935 24.6238 17.7314C24.5566 17.5692 24.539 17.3907 24.5733 17.2186C24.6075 17.0464 24.6921 16.8883 24.8162 16.7642C24.9403 16.64 25.0984 16.5555 25.2706 16.5213C25.4428 16.487 25.6212 16.5046 25.7834 16.5718C25.9455 16.639 26.0842 16.7527 26.1817 16.8987C26.2792 17.0446 26.3312 17.2162 26.3312 17.3917C26.3311 17.6271 26.2375 17.8527 26.0711 18.0191C25.9047 18.1855 25.6791 18.2791 25.4437 18.2792Z" fill="#363838"/>
<path d="M10.6163 10.5518L15.9413 5.22673C16.1084 5.06358 16.3331 4.97287 16.5666 4.97426C16.8001 4.97565 17.0237 5.06904 17.1888 5.23417C17.354 5.3993 17.4474 5.62286 17.4487 5.85639C17.4501 6.08992 17.3594 6.31458 17.1963 6.48167L11.8712 11.8067C11.7042 11.9701 11.4795 12.061 11.2458 12.0597C11.0121 12.0584 10.7884 11.965 10.6232 11.7998C10.458 11.6346 10.3646 11.4109 10.3633 11.1772C10.362 10.9435 10.4529 10.7188 10.6163 10.5518Z" fill="#363838"/>
<path d="M16.8292 8.77677L18.6042 7.00176C18.7713 6.83861 18.996 6.74789 19.2295 6.74928C19.463 6.75067 19.6866 6.84406 19.8517 7.00919C20.0168 7.17432 20.1102 7.39789 20.1116 7.63141C20.113 7.86494 20.0223 8.0896 19.8591 8.25669L18.0841 10.0317C17.9171 10.1951 17.6924 10.286 17.4587 10.2847C17.225 10.2834 17.0013 10.19 16.8361 10.0248C16.6709 9.85958 16.5775 9.63586 16.5762 9.4022C16.5749 9.16855 16.6658 8.94381 16.8292 8.77677Z" fill="#363838"/>
<path d="M3.25665 6.7417C3.43218 6.7417 3.60377 6.79375 3.74972 6.89127C3.89567 6.98879 4.00942 7.1274 4.07659 7.28957C4.14377 7.45174 4.16134 7.63019 4.1271 7.80235C4.09285 7.97451 4.00833 8.13265 3.88421 8.25677C3.76009 8.38089 3.60195 8.46541 3.42979 8.49966C3.25763 8.5339 3.07918 8.51632 2.91701 8.44915C2.75484 8.38198 2.61623 8.26823 2.51871 8.12228C2.42119 7.97633 2.36914 7.80474 2.36914 7.6292C2.36914 7.39382 2.46265 7.16808 2.62908 7.00164C2.79552 6.8352 3.02126 6.7417 3.25665 6.7417Z" fill="#363838"/>
<path d="M48.519 14.8928V3.19169C48.5182 2.48578 48.2375 1.80901 47.7383 1.30986C47.2392 0.810707 46.5624 0.529945 45.8565 0.529175H44.0815C43.5327 0.530863 42.9978 0.702389 42.5504 1.0202C42.103 1.33802 41.7649 1.78654 41.5825 2.30418L9.30526 2.30418C9.12292 1.78654 8.78483 1.33802 8.33739 1.0202C7.88995 0.702389 7.35511 0.530863 6.80628 0.529175L5.03127 0.529175C4.32537 0.529945 3.6486 0.810707 3.14944 1.30986C2.65029 1.80901 2.36953 2.48578 2.36876 3.19169V4.9667C2.36876 5.20208 2.46226 5.42782 2.6287 5.59426C2.79514 5.7607 3.02088 5.8542 3.25626 5.8542C3.49165 5.8542 3.71739 5.7607 3.88383 5.59426C4.05027 5.42782 4.14377 5.20208 4.14377 4.9667V3.19169C4.14393 2.95636 4.23748 2.73071 4.40389 2.5643C4.57029 2.3979 4.79594 2.30434 5.03127 2.30418H6.80628C7.04162 2.30434 7.26727 2.3979 7.43367 2.5643C7.60008 2.73071 7.69363 2.95636 7.69379 3.19169V14.7293H4.14377V10.2917C4.14377 10.0563 4.05027 9.83061 3.88383 9.66417C3.71739 9.49773 3.49165 9.40422 3.25626 9.40422C3.02088 9.40422 2.79514 9.49773 2.6287 9.66417C2.46226 9.83061 2.36876 10.0563 2.36876 10.2917V14.8928C1.85111 15.0751 1.40259 15.4132 1.08478 15.8607C0.766964 16.3081 0.595438 16.8429 0.59375 17.3918V20.9418C0.59544 21.4906 0.766967 22.0254 1.08478 22.4729C1.4026 22.9203 1.85111 23.2584 2.36876 23.4407L2.36876 36.9169C2.36953 37.6228 2.65029 38.2996 3.14944 38.7987C3.6486 39.2979 4.32537 39.5786 5.03127 39.5794H45.8565C46.5624 39.5786 47.2392 39.2979 47.7383 38.7987C48.2375 38.2996 48.5182 37.6228 48.519 36.9169V23.4408C49.0367 23.2584 49.4852 22.9203 49.803 22.4729C50.1208 22.0255 50.2923 21.4906 50.294 20.9418V17.3918C50.2923 16.8429 50.1208 16.3081 49.803 15.8607C49.4852 15.4132 49.0367 15.0751 48.519 14.8928ZM44.0815 2.30418H45.8565C46.0918 2.30434 46.3175 2.3979 46.4839 2.5643C46.6503 2.73071 46.7439 2.95636 46.744 3.19169V14.7293H43.194V3.19169C43.1941 2.95636 43.2877 2.73071 43.4541 2.5643C43.6205 2.3979 43.8462 2.30434 44.0815 2.30418ZM9.4688 4.07919H41.419V14.7293H31.6564V12.0667C31.6558 11.5962 31.4686 11.145 31.1359 10.8123C30.8031 10.4795 30.352 10.2923 29.8814 10.2917H21.0064C20.5358 10.2923 20.0847 10.4795 19.7519 10.8123C19.4192 11.145 19.232 11.5962 19.2314 12.0667V14.7293H9.4688V4.07919ZM9.4688 23.6043H19.2314V26.2668C19.232 26.7374 19.4192 27.1885 19.7519 27.5213C20.0847 27.854 20.5358 28.0412 21.0064 28.0418H29.8814C30.352 28.0412 30.8031 27.854 31.1359 27.5213C31.4686 27.1885 31.6558 26.7374 31.6564 26.2668V23.6043H41.419V31.5918C41.4188 31.8272 41.3253 32.0528 41.1589 32.2192C40.9925 32.3856 40.7668 32.4792 40.5315 32.4794H10.3563C10.121 32.4792 9.89532 32.3856 9.72892 32.2192C9.56251 32.0528 9.46896 31.8272 9.4688 31.5918V23.6043ZM29.8818 15.6189L29.8827 22.7104L29.8814 22.7168L29.8827 22.7232L29.8832 26.2668H21.0064V12.0667H29.8814L29.8818 15.6146L29.8814 15.6168L29.8818 15.6189ZM2.36876 17.3918C2.36892 17.1564 2.46247 16.9308 2.62888 16.7644C2.79528 16.598 3.02093 16.5044 3.25626 16.5043H19.2314V21.8293H3.25626C3.02093 21.8291 2.79528 21.7356 2.62888 21.5692C2.46247 21.4028 2.36892 21.1771 2.36876 20.9418V17.3918ZM45.8565 37.8044H5.03127C4.79594 37.8042 4.57029 37.7107 4.40389 37.5443C4.23748 37.3779 4.14393 37.1522 4.14377 36.9169V23.6043H7.69379V31.5918C7.69456 32.2978 7.97532 32.9745 8.47447 33.4737C8.97363 33.9728 9.6504 34.2536 10.3563 34.2544H40.5315C41.2374 34.2536 41.9142 33.9728 42.4133 33.4737C42.9125 32.9745 43.1932 32.2978 43.194 31.5918V23.6043H46.744V36.9169C46.7439 37.1522 46.6503 37.3779 46.4839 37.5443C46.3175 37.7107 46.0918 37.8042 45.8565 37.8044ZM48.519 20.9418C48.5189 21.1771 48.4253 21.4028 48.2589 21.5692C48.0925 21.7356 47.8668 21.8291 47.6315 21.8293H31.6564V16.5043H47.6315C47.8668 16.5044 48.0925 16.598 48.2589 16.7644C48.4253 16.9308 48.5189 17.1564 48.519 17.3918V20.9418Z" fill="#363838"/>
</svg>
