<svg width="47" height="42" viewBox="0 0 47 42" fill="none" xmlns="http://www.w3.org/2000/svg">
<path d="M23.5 42C22.8309 42 22.1858 41.7565 21.6831 41.3142C19.7844 39.6467 17.9538 38.0796 16.3388 36.6972L16.3305 36.69C11.5954 32.6371 7.50655 29.1369 4.66156 25.689C1.4813 21.8345 0 18.1799 0 14.1874C0 10.3084 1.32424 6.72975 3.72853 4.11025C6.16151 1.45976 9.4999 0 13.1298 0C15.8428 0 18.3275 0.861524 20.5145 2.56044C21.6182 3.418 22.6186 4.46753 23.5 5.69175C24.3818 4.46753 25.3818 3.418 26.4859 2.56044C28.6729 0.861524 31.1575 0 33.8705 0C37.5001 0 40.8388 1.45976 43.2718 4.11025C45.6761 6.72975 47 10.3084 47 14.1874C47 18.1799 45.5191 21.8345 42.3388 25.6887C39.4938 29.1369 35.4053 32.6367 30.6709 36.6893C29.053 38.0738 27.2196 39.6434 25.3166 41.315C24.8142 41.7565 24.1688 42 23.5 42ZM13.1298 2.76538C10.278 2.76538 7.65823 3.90855 5.75237 5.98456C3.81818 8.09191 2.75283 11.005 2.75283 14.1874C2.75283 17.5453 3.99532 20.5483 6.78114 23.9246C9.47372 27.1881 13.4787 30.6161 18.1159 34.5856L18.1245 34.5928C19.7457 35.9805 21.5834 37.5537 23.4961 39.2335C25.4202 37.5505 27.2608 35.9747 28.8852 34.5848C33.522 30.6154 37.5266 27.1881 40.2192 23.9246C43.0047 20.5483 44.2472 17.5453 44.2472 14.1874C44.2472 11.005 43.1818 8.09191 41.2476 5.98456C39.3421 3.90855 36.722 2.76538 33.8705 2.76538C31.7814 2.76538 29.8634 3.43241 28.1698 4.74774C26.6605 5.92045 25.6092 7.40291 24.9928 8.4402C24.6758 8.97361 24.1178 9.29199 23.5 9.29199C22.8822 9.29199 22.3242 8.97361 22.0072 8.4402C21.3912 7.40291 20.3398 5.92045 18.8302 4.74774C17.1366 3.43241 15.2186 2.76538 13.1298 2.76538Z" fill="#E18213"/>
</svg>
