<svg width="25" height="25" viewBox="0 0 25 25" fill="none" xmlns="http://www.w3.org/2000/svg">
<path d="M9.94434 3.05426C11.6682 3.05426 13.3215 3.73908 14.5405 4.95807C15.7595 6.17705 16.4443 7.83035 16.4443 9.55426C16.4443 11.1643 15.8543 12.6443 14.8843 13.7843L15.1543 14.0543H15.9443L20.9443 19.0543L19.4443 20.5543L14.4443 15.5543V14.7643L14.1743 14.4943C13.0343 15.4643 11.5543 16.0543 9.94434 16.0543C8.22043 16.0543 6.56713 15.3694 5.34814 14.1505C4.12916 12.9315 3.44434 11.2782 3.44434 9.55426C3.44434 7.83035 4.12916 6.17705 5.34814 4.95807C6.56713 3.73908 8.22043 3.05426 9.94434 3.05426ZM9.94434 5.05426C7.44434 5.05426 5.44434 7.05426 5.44434 9.55426C5.44434 12.0543 7.44434 14.0543 9.94434 14.0543C12.4443 14.0543 14.4443 12.0543 14.4443 9.55426C14.4443 7.05426 12.4443 5.05426 9.94434 5.05426Z" fill="white"/>
</svg>
