<svg width="41" height="41" viewBox="0 0 41 41" fill="none" xmlns="http://www.w3.org/2000/svg">
<g clip-path="url(#clip0_529_1078)">
<path d="M29.0757 0.108643H11.5757C5.32568 0.108643 0.325684 5.10864 0.325684 11.3586V28.8586C0.325684 35.1086 5.32568 40.1086 11.5757 40.1086H29.0757C35.3257 40.1086 40.3257 35.1086 40.3257 28.8586V11.3586C40.3257 5.10864 35.3257 0.108643 29.0757 0.108643Z" fill="#3A559F"/>
<path d="M33.8257 19.3586C33.5757 19.1086 33.2007 18.8586 32.8257 18.8586H26.5757V14.1086C26.5757 13.9836 26.7007 13.8586 26.8257 13.8586H31.5757C32.3257 13.8586 32.8257 13.3586 32.8257 12.6086V8.85864C32.8257 8.10864 32.3257 7.60864 31.5757 7.60864H26.5757C22.4507 7.60864 20.3257 10.9836 20.3257 15.1086V18.8586H15.3257C14.5757 18.8586 14.0757 19.3586 14.0757 20.1086V23.8586C14.0757 24.6086 14.5757 25.1086 15.3257 25.1086H20.3257V40.1086H26.5757V25.1086H30.3257C30.8257 25.1086 31.3257 24.8586 31.4507 24.3586L33.9507 20.6086C34.2007 20.2336 34.0757 19.7336 33.8257 19.3586Z" fill="white"/>
</g>
<defs>
<clipPath id="clip0_529_1078">
<rect width="40" height="40" fill="white" transform="translate(0.325684 0.108643)"/>
</clipPath>
</defs>
</svg>
