<svg width="40" height="40" viewBox="0 0 40 40" fill="none" xmlns="http://www.w3.org/2000/svg">
<path d="M5 8.75V28.75C5 29.413 5.26339 30.0489 5.73223 30.5178C6.20107 30.9866 6.83696 31.25 7.5 31.25H32.5C33.163 31.25 33.7989 30.9866 34.2678 30.5178C34.7366 30.0489 35 29.413 35 28.75V8.75H5ZM5 6.25H35C35.663 6.25 36.2989 6.51339 36.7678 6.98223C37.2366 7.45107 37.5 8.08696 37.5 8.75V28.75C37.5 30.0761 36.9732 31.3479 36.0355 32.2855C35.0979 33.2232 33.8261 33.75 32.5 33.75H7.5C6.17392 33.75 4.90215 33.2232 3.96447 32.2855C3.02678 31.3479 2.5 30.0761 2.5 28.75V8.75C2.5 8.08696 2.76339 7.45107 3.23223 6.98223C3.70107 6.51339 4.33696 6.25 5 6.25Z" fill="#2D5654"/>
<path d="M35.3125 8.75L25.645 19.8C24.9411 20.6047 24.0732 21.2497 23.0996 21.6915C22.126 22.1334 21.0692 22.362 20 22.362C18.9308 22.362 17.874 22.1334 16.9004 21.6915C15.9268 21.2497 15.0589 20.6047 14.355 19.8L4.6875 8.75H35.3125ZM8.01 8.75L16.235 18.1525C16.7043 18.6891 17.2829 19.1192 17.9321 19.4139C18.5812 19.7085 19.2859 19.861 19.9987 19.861C20.7116 19.861 21.4163 19.7085 22.0654 19.4139C22.7146 19.1192 23.2932 18.6891 23.7625 18.1525L31.99 8.75H8.01Z" fill="#2D5654"/>
</svg>
