<svg width="40" height="40" viewBox="0 0 40 40" fill="none" xmlns="http://www.w3.org/2000/svg">
<path d="M25.8334 1.66669H12.5C11.395 1.66669 10.3352 2.10567 9.55376 2.88708C8.77236 3.66848 8.33337 4.72828 8.33337 5.83335V34.1667C8.33337 35.2718 8.77236 36.3316 9.55376 37.113C10.3352 37.8944 11.395 38.3334 12.5 38.3334H25.8334C26.9384 38.3334 27.9983 37.8944 28.7797 37.113C29.5611 36.3316 30 35.2718 30 34.1667V5.83335C30 4.72828 29.5611 3.66848 28.7797 2.88708C27.9983 2.10567 26.9384 1.66669 25.8334 1.66669ZM19.1667 36.6667C17.7834 36.6667 16.6667 35.55 16.6667 34.1667C16.6667 32.7833 17.7834 31.6667 19.1667 31.6667C20.55 31.6667 21.6667 32.7833 21.6667 34.1667C21.6667 35.55 20.55 36.6667 19.1667 36.6667ZM26.6667 30H11.6667V6.66669H26.6667V30Z" fill="#2D5654"/>
</svg>
