<svg width="40" height="40" viewBox="0 0 40 40" fill="none" xmlns="http://www.w3.org/2000/svg">
<g clip-path="url(#clip0_152_1324)">
<path d="M20 3.33331C29.205 3.33331 36.6667 10.795 36.6667 20C36.6667 29.205 29.205 36.6666 20 36.6666C10.795 36.6666 3.33337 29.205 3.33337 20C3.33337 10.795 10.795 3.33331 20 3.33331ZM20 9.99998C19.558 9.99998 19.1341 10.1756 18.8215 10.4881C18.509 10.8007 18.3334 11.2246 18.3334 11.6666V20C18.3335 20.442 18.5091 20.8658 18.8217 21.1783L23.8217 26.1783C24.136 26.4819 24.557 26.6499 24.994 26.6461C25.431 26.6423 25.8491 26.467 26.1581 26.158C26.4671 25.849 26.6424 25.431 26.6462 24.994C26.65 24.557 26.482 24.136 26.1784 23.8216L21.6667 19.31V11.6666C21.6667 11.2246 21.4911 10.8007 21.1786 10.4881C20.866 10.1756 20.4421 9.99998 20 9.99998Z" fill="#2D5654"/>
</g>
<defs>
<clipPath id="clip0_152_1324">
<rect width="40" height="40" fill="white"/>
</clipPath>
</defs>
</svg>
