<svg width="41" height="40" viewBox="0 0 41 40" fill="none" xmlns="http://www.w3.org/2000/svg">
<path d="M36.4998 14.9321C36.4994 17.2884 35.5676 19.5491 33.9074 21.2213C30.0853 25.0747 26.3768 29.0926 22.4098 32.805C21.9667 33.2097 21.3849 33.4284 20.785 33.416C20.1851 33.4037 19.6129 33.1611 19.1868 32.7385L7.75973 21.2252C6.09867 19.5519 5.1665 17.2898 5.1665 14.9321C5.1665 12.5743 6.09867 10.3122 7.75973 8.63893C8.58865 7.80336 9.57479 7.14016 10.6613 6.68758C11.7478 6.235 12.9131 6.00199 14.0901 6.00199C15.2671 6.00199 16.4324 6.235 17.5189 6.68758C18.6054 7.14016 19.5915 7.80336 20.4204 8.63893L20.8355 9.05795L21.2506 8.63893C22.4955 7.38328 24.0856 6.52607 25.8188 6.17626C27.552 5.82644 29.3501 5.99981 30.9845 6.67432C32.619 7.34884 34.016 8.49404 34.998 9.96441C35.9801 11.4348 36.5028 13.1639 36.4998 14.9321Z" fill="#E43801"/>
</svg>
