<svg width="41" height="40" viewBox="0 0 41 40" fill="none" xmlns="http://www.w3.org/2000/svg">
<g clip-path="url(#clip0_937_7556)">
<path d="M20.5002 3.33337C29.7052 3.33337 37.1668 10.795 37.1668 20C37.1668 29.205 29.7052 36.6667 20.5002 36.6667C11.2952 36.6667 3.8335 29.205 3.8335 20C3.8335 10.795 11.2952 3.33337 20.5002 3.33337ZM20.5002 10C20.0581 10 19.6342 10.1756 19.3217 10.4882C19.0091 10.8008 18.8335 11.2247 18.8335 11.6667V20C18.8336 20.442 19.0092 20.8659 19.3218 21.1784L24.3218 26.1784C24.6362 26.482 25.0572 26.65 25.4942 26.6462C25.9312 26.6424 26.3492 26.4671 26.6582 26.1581C26.9672 25.8491 27.1425 25.431 27.1463 24.994C27.1501 24.557 26.9821 24.136 26.6785 23.8217L22.1668 19.31V11.6667C22.1668 11.2247 21.9912 10.8008 21.6787 10.4882C21.3661 10.1756 20.9422 10 20.5002 10Z" fill="white"/>
</g>
<defs>
<clipPath id="clip0_937_7556">
<rect width="40" height="40" fill="white" transform="translate(0.5)"/>
</clipPath>
</defs>
</svg>
