<svg width="41" height="40" viewBox="0 0 41 40" fill="none" xmlns="http://www.w3.org/2000/svg">
<path d="M20.4998 6.66663C22.2679 6.66663 23.9636 7.369 25.2139 8.61925C26.4641 9.86949 27.1665 11.5652 27.1665 13.3333C27.1665 15.1014 26.4641 16.7971 25.2139 18.0473C23.9636 19.2976 22.2679 20 20.4998 20C18.7317 20 17.036 19.2976 15.7858 18.0473C14.5355 16.7971 13.8332 15.1014 13.8332 13.3333C13.8332 11.5652 14.5355 9.86949 15.7858 8.61925C17.036 7.369 18.7317 6.66663 20.4998 6.66663ZM20.4998 23.3333C27.8665 23.3333 33.8332 26.3166 33.8332 30V33.3333H7.1665V30C7.1665 26.3166 13.1332 23.3333 20.4998 23.3333Z" fill="white"/>
</svg>
