<svg width="150" height="150" viewBox="0 0 150 150" fill="none" xmlns="http://www.w3.org/2000/svg">
<g clip-path="url(#clip0_280_6352)">
<path d="M75 0C33.7793 0 0 33.7793 0 75C0 116.221 33.7793 150 75 150C116.221 150 150 116.221 150 75C150 33.7793 116.221 0 75 0Z" fill="#FFDA2D"/>
<path d="M150 75C150 116.221 116.221 150 75 150V0C116.221 0 150 33.7793 150 75Z" fill="#FDBF00"/>
<path d="M75 17.5781C43.5349 17.5781 17.5781 43.5349 17.5781 75C17.5781 106.465 43.5349 132.422 75 132.422C106.465 132.422 132.422 106.465 132.422 75C132.422 43.5349 106.465 17.5781 75 17.5781Z" fill="#FDBF00"/>
<path d="M132.422 75C132.422 106.465 106.465 132.422 75 132.422V17.5781C106.465 17.5781 132.422 43.5349 132.422 75Z" fill="#FF9100"/>
<path d="M92.5781 61.8164C91.1722 61.8164 89.4141 62.0798 87.5684 62.4316C87.9196 60.5856 88.1836 58.8278 88.1836 57.4219C88.1836 50.1267 82.2952 44.2383 75 44.2383C67.7048 44.2383 61.8164 50.1267 61.8164 57.4219C61.8164 58.8278 62.0804 60.5859 62.4316 62.4316C60.5856 62.0798 58.8278 61.8164 57.4219 61.8164C50.1267 61.8164 44.2383 67.7048 44.2383 75C44.2383 82.2946 50.1267 88.1836 57.4219 88.1836C58.8278 88.1836 60.5859 87.9196 62.4316 87.5684C62.0804 89.4144 61.8164 91.1716 61.8164 92.5781C61.8164 99.8728 67.7048 105.762 75 105.762C82.2952 105.762 88.1836 99.8728 88.1836 92.5781C88.1836 91.1716 87.9196 89.4141 87.5684 87.5684C89.4144 87.9196 91.1722 88.1836 92.5781 88.1836C99.8733 88.1836 105.762 82.2946 105.762 75C105.762 67.7048 99.8733 61.8164 92.5781 61.8164Z" fill="#FFDA2D"/>
<path d="M105.762 75C105.762 82.2946 99.8733 88.1836 92.5781 88.1836C91.1722 88.1836 89.4141 87.9196 87.5684 87.5684C87.9196 89.4144 88.1836 91.1716 88.1836 92.5781C88.1836 99.8728 82.2952 105.762 75 105.762V44.2383C82.2952 44.2383 88.1836 50.1267 88.1836 57.4219C88.1836 58.8278 87.9196 60.5859 87.5684 62.4316C89.4144 62.0798 91.1722 61.8164 92.5781 61.8164C99.8733 61.8164 105.762 67.7048 105.762 75Z" fill="#FDBF00"/>
<path d="M21.368 71.62H54.704V76.336H21.368V71.62ZM57.872 67.228H90.128V70.756H57.872V67.228ZM71.696 61.108H75.98V76.408H71.696V61.108ZM84.728 57.652L87.464 60.784C80.156 62.26 69.716 62.944 60.896 63.088C60.788 62.152 60.356 60.676 59.996 59.812C68.708 59.596 78.788 58.876 84.728 57.652ZM70.22 68.452L73.712 70C70.364 73.996 64.856 77.524 59.6 79.36C59.024 78.388 57.836 76.84 56.936 76.048C61.976 74.572 67.412 71.62 70.22 68.452ZM77.42 68.56C80.336 71.656 85.988 74.356 91.316 75.652C90.344 76.516 89.12 78.208 88.472 79.288C83.072 77.596 77.492 74.068 74.144 69.964L77.42 68.56ZM81.02 61.684L85.808 62.836C84.62 64.78 83.36 66.688 82.424 67.984L78.716 66.868C79.544 65.392 80.516 63.232 81.02 61.684ZM62.732 63.628L66.44 62.26C67.448 63.556 68.6 65.356 69.068 66.58L65.18 68.092C64.748 66.904 63.704 64.996 62.732 63.628ZM62.444 77.02H85.988V91.168H81.632V80.26H66.584V91.312H62.444V77.02ZM64.064 82.132H84.008V84.94H64.064V82.132ZM64.064 86.92H84.008V90.16H64.064V86.92ZM71.84 79H75.944V89.116H71.84V79ZM107.732 57.436H112.088V63.34H107.732V57.436ZM94.772 61.216H125.552V68.056H121.376V64.132H98.804V68.056H94.772V61.216ZM104.492 67.84V69.388H115.472V67.84H104.492ZM100.496 65.464H119.756V71.764H100.496V65.464ZM98.048 58.624L101.9 57.616C102.8 58.624 103.772 60.064 104.276 61.072L100.316 62.332C99.92 61.324 98.912 59.74 98.048 58.624ZM118.28 57.472L122.744 58.516C121.628 60.064 120.404 61.432 119.468 62.368L115.94 61.36C116.732 60.244 117.776 58.624 118.28 57.472ZM102.548 78.82V80.116H117.776V78.82H102.548ZM102.548 82.312V83.68H117.776V82.312H102.548ZM102.548 75.292V76.624H117.776V75.292H102.548ZM98.444 72.988H122.06V85.984H98.444V72.988ZM103.952 85.84L108.092 87.424C105.356 89.26 100.748 90.664 97.004 91.492C96.248 90.592 94.7 88.972 93.8 88.252C97.58 87.82 101.792 86.992 103.952 85.84ZM111.908 87.892L115.256 85.552C119.036 86.596 123.536 88 126.164 88.972L121.628 91.276C119.468 90.34 115.652 88.972 111.908 87.892Z" fill="white"/>
</g>
<defs>
<clipPath id="clip0_280_6352">
<rect width="150" height="150" fill="white"/>
</clipPath>
</defs>
</svg>
