<svg width="57" height="57" viewBox="0 0 57 57" fill="none" xmlns="http://www.w3.org/2000/svg">
<path d="M29.638 14.8529L26.9301 14.8529C26.281 14.8529 25.7547 15.3792 25.7546 16.0283L25.7546 37.2997C25.7545 37.9488 26.2808 38.4751 26.93 38.4751L29.638 38.4752C29.9497 38.4752 30.2487 38.3514 30.4692 38.131C30.6896 37.9105 30.8135 37.6115 30.8134 37.2998L30.8133 16.0284C30.8134 15.3791 30.2871 14.8528 29.638 14.8529Z" fill="#A44E3F"/>
<path d="M29.6381 38.4752C29.9499 38.4752 30.2489 38.3514 30.4693 38.131C30.6897 37.9106 30.8136 37.6116 30.8135 37.2998L30.8135 16.0285C30.8135 15.3793 30.2872 14.853 29.638 14.853L28.3714 14.853L28.3715 38.4752L29.6381 38.4752Z" fill="#87363E"/>
<path d="M36.1882 35.2935L29.5465 35.2935L28.371 36.469L27.1956 35.2935L20.5538 35.2935C19.9047 35.2933 19.3785 35.8197 19.3784 36.469L19.3783 43.5721C19.3785 46.855 20.8913 49.7342 23.7535 51.8985C25.8513 53.4847 27.9427 54.1283 28.0308 54.1549C28.2526 54.222 28.4894 54.222 28.7114 54.1549C28.7995 54.1283 30.8909 53.4847 32.9886 51.8985C33.4754 51.5303 33.9231 51.1417 34.3311 50.7337C36.3216 48.7432 37.3637 46.2966 37.3636 43.5721L37.3637 36.469C37.3637 36.1572 37.2399 35.8582 37.0194 35.6378C36.799 35.4173 36.5 35.2935 36.1882 35.2935Z" fill="#EBF0FA"/>
<path d="M28.7114 54.1545C28.7995 54.128 30.8909 53.4843 32.9886 51.8981C33.4755 51.53 33.9232 51.1413 34.3312 50.7333C36.3216 48.7429 37.3637 46.2962 37.3636 43.5718L37.3637 36.4687C37.3637 36.1569 37.2399 35.8579 37.0195 35.6375C36.799 35.417 36.5 35.2931 36.1883 35.2932L29.5466 35.2932L28.3719 36.468L28.3719 54.2049C28.4863 54.2048 28.6007 54.188 28.7114 54.1545Z" fill="#DCE1EB"/>
<path d="M34.6883 8.10487L21.8801 8.10492L21.8801 11.2445C21.8801 13.4277 23.6499 15.1975 25.8331 15.1975L30.7353 15.1975C32.9186 15.1975 34.6884 13.4277 34.6884 11.2445L34.6883 8.10487Z" fill="white"/>
<path d="M34.3616 14.8708C33.393 15.8394 32.105 16.3728 30.7351 16.3728L25.8331 16.3728C24.4632 16.3728 23.1752 15.8394 22.2066 14.8708C21.238 13.9022 20.7045 12.6142 20.7046 11.2444L20.7046 8.10485C20.7046 7.45576 21.2309 6.92945 21.8801 6.9294L34.6882 6.9294C35.3374 6.92934 35.8637 7.45565 35.8637 8.10486L35.8637 11.2444C35.8637 12.6143 35.3302 13.9022 34.3616 14.8708ZM23.0554 9.28031L23.0554 11.2445C23.0554 11.9863 23.3443 12.6839 23.8689 13.2085C24.3935 13.7332 25.091 14.022 25.8329 14.022L30.735 14.022C31.4769 14.022 32.1745 13.7331 32.6991 13.2085C33.2237 12.6839 33.5126 11.9864 33.5126 11.2445L33.5126 9.28031L23.0554 9.28031Z" fill="#384949"/>
<path d="M34.6876 6.92934L28.3708 6.92934L28.3708 9.28026L33.5121 9.28026L33.5121 11.2444C33.5121 11.9863 33.2232 12.6839 32.6986 13.2085C32.1739 13.7331 31.4764 14.0219 30.7345 14.022L28.3708 14.022L28.3708 16.3729L30.7345 16.3729C32.1044 16.3729 33.3923 15.8394 34.3609 14.8708C35.3295 13.9022 35.863 12.6143 35.8629 11.2445L35.8629 8.10491C35.8632 7.45559 35.3369 6.92929 34.6876 6.92934Z" fill="#283939"/>
<path d="M27.1955 35.2933L27.1955 41.8414C27.1954 42.4906 27.7217 43.0169 28.3709 43.0169C28.6955 43.0169 28.9894 42.8853 29.2021 42.6727C29.4148 42.46 29.5464 42.166 29.5463 41.8415L29.5463 35.2933L27.1955 35.2933Z" fill="#DCE1EB"/>
<path d="M29.202 42.6726C29.4147 42.4599 29.5463 42.166 29.5462 41.8414L29.5462 35.2932L28.3715 35.2932L28.3715 43.0168C28.6958 43.0166 28.9894 42.8852 29.202 42.6726Z" fill="#CDD2E1"/>
</svg>
